<svg version="1.1" viewBox="0.0 0.0 1331.6561679790027 100.0" fill="none" stroke="none" stroke-linecap="square" stroke-miterlimit="10" xmlns:xlink="http://www.w3.org/1999/xlink" xmlns="http://www.w3.org/2000/svg"><clipPath id="p.0"><path d="m0 0l1331.6561 0l0 100.0l-1331.6561 0l0 -100.0z" clip-rule="nonzero"/></clipPath><g clip-path="url(#p.0)"><path fill="#000000" fill-opacity="0.0" d="m0 0l1331.6561 0l0 100.0l-1331.6561 0z" fill-rule="evenodd"/><path fill="#f3f3f3" d="m0 87.703415l1332.2205 0l0 12.535431l-1332.2205 0z" fill-rule="evenodd"/><path fill="#f3f3f3" d="m-6.417323 91.854576l11.705118 -8.803314l11.705117 0l-23.410236 17.606628z" fill-rule="evenodd"/><path fill="#f3f3f3" d="m15.555884 91.854576l11.705119 -8.803314l11.705118 0l-23.410236 17.606628z" fill-rule="evenodd"/><path fill="#f3f3f3" d="m37.13652 91.854576l11.70512 -8.803314l11.705116 0l-23.410236 17.606628z" fill-rule="evenodd"/><path fill="#f3f3f3" d="m59.448277 91.854576l11.70512 -8.803314l11.705116 0l-23.410236 17.606628z" fill-rule="evenodd"/><path fill="#f3f3f3" d="m81.421486 91.854576l11.705116 -8.803314l11.705116 0l-23.410233 17.606628z" fill-rule="evenodd"/><path fill="#f3f3f3" d="m103.00212 91.854576l11.705116 -8.803314l11.705116 0l-23.410233 17.606628z" fill-rule="evenodd"/><path fill="#f3f3f3" d="m125.31387 91.854576l11.705124 -8.803314l11.705109 0l-23.410233 17.606628z" fill-rule="evenodd"/><path fill="#f3f3f3" d="m147.28708 91.854576l11.705124 -8.803314l11.705124 0l-23.410248 17.606628z" fill-rule="evenodd"/><path fill="#f3f3f3" d="m168.86772 91.854576l11.705124 -8.803314l11.705109 0l-23.410233 17.606628z" fill-rule="evenodd"/><path fill="#f3f3f3" d="m191.17947 91.854576l11.705124 -8.803314l11.705109 0l-23.410233 17.606628z" fill-rule="evenodd"/><path fill="#f3f3f3" d="m213.15268 91.854576l11.705124 -8.803314l11.705124 0l-23.410248 17.606628z" fill-rule="evenodd"/><path fill="#f3f3f3" d="m234.73332 91.854576l11.705124 -8.803314l11.705109 0l-23.410233 17.606628z" fill-rule="evenodd"/><path fill="#f3f3f3" d="m256.31396 91.854576l11.705109 -8.803314l11.705109 0l-23.410217 17.606628z" fill-rule="evenodd"/><path fill="#f3f3f3" d="m278.28717 91.854576l11.705109 -8.803314l11.705109 0l-23.410217 17.606628z" fill-rule="evenodd"/><path fill="#f3f3f3" d="m299.8678 91.854576l11.705109 -8.803314l11.705139 0l-23.410248 17.606628z" fill-rule="evenodd"/><path fill="#f3f3f3" d="m322.17957 91.854576l11.705109 -8.803314l11.705109 0l-23.410217 17.606628z" fill-rule="evenodd"/><path fill="#f3f3f3" d="m344.15277 91.854576l11.705109 -8.803314l11.705109 0l-23.410217 17.606628z" fill-rule="evenodd"/><path fill="#f3f3f3" d="m365.7334 91.854576l11.705109 -8.803314l11.705139 0l-23.410248 17.606628z" fill-rule="evenodd"/><path fill="#f3f3f3" d="m388.04517 91.854576l11.705109 -8.803314l11.705109 0l-23.410217 17.606628z" fill-rule="evenodd"/><path fill="#f3f3f3" d="m410.01837 91.854576l11.705109 -8.803314l11.705109 0l-23.410217 17.606628z" fill-rule="evenodd"/><path fill="#f3f3f3" d="m431.599 91.854576l11.705109 -8.803314l11.705139 0l-23.410248 17.606628z" fill-rule="evenodd"/><path fill="#f3f3f3" d="m453.91077 91.854576l11.705109 -8.803314l11.705109 0l-23.410217 17.606628z" fill-rule="evenodd"/><path fill="#f3f3f3" d="m475.88397 91.854576l11.705109 -8.803314l11.705109 0l-23.410217 17.606628z" fill-rule="evenodd"/><path fill="#f3f3f3" d="m497.4646 91.854576l11.705109 -8.803314l11.705109 0l-23.410217 17.606628z" fill-rule="evenodd"/><path fill="#f3f3f3" d="m519.0452 91.854576l11.705139 -8.803314l11.705078 0l-23.410217 17.606628z" fill-rule="evenodd"/><path fill="#f3f3f3" d="m540.62585 91.854576l11.705139 -8.803314l11.705139 0l-23.410278 17.606628z" fill-rule="evenodd"/><path fill="#f3f3f3" d="m562.9376 91.854576l11.705139 -8.803314l11.705078 0l-23.410217 17.606628z" fill-rule="evenodd"/><path fill="#f3f3f3" d="m584.9108 91.854576l11.705139 -8.803314l11.705078 0l-23.410217 17.606628z" fill-rule="evenodd"/><path fill="#f3f3f3" d="m606.49146 91.854576l11.705139 -8.803314l11.705139 0l-23.410278 17.606628z" fill-rule="evenodd"/><path fill="#f3f3f3" d="m628.4042 91.854576l11.705139 -8.803314l11.705139 0l-23.410278 17.606628z" fill-rule="evenodd"/><path fill="#f3f3f3" d="m650.3774 91.854576l11.705139 -8.803314l11.705139 0l-23.410278 17.606628z" fill-rule="evenodd"/><path fill="#f3f3f3" d="m671.95807 91.854576l11.705078 -8.803314l11.705139 0l-23.410217 17.606628z" fill-rule="evenodd"/><path fill="#f3f3f3" d="m694.2698 91.854576l11.705139 -8.803314l11.705139 0l-23.410278 17.606628z" fill-rule="evenodd"/><path fill="#f3f3f3" d="m716.243 91.854576l11.705139 -8.803314l11.705139 0l-23.410278 17.606628z" fill-rule="evenodd"/><path fill="#f3f3f3" d="m737.82367 91.854576l11.705078 -8.803314l11.705139 0l-23.410217 17.606628z" fill-rule="evenodd"/><path fill="#f3f3f3" d="m760.1354 91.854576l11.705139 -8.803314l11.705139 0l-23.410278 17.606628z" fill-rule="evenodd"/><path fill="#f3f3f3" d="m782.1086 91.854576l11.705139 -8.803314l11.705139 0l-23.410278 17.606628z" fill-rule="evenodd"/><path fill="#f3f3f3" d="m803.6893 91.854576l11.705078 -8.803314l11.705139 0l-23.410217 17.606628z" fill-rule="evenodd"/><path fill="#f3f3f3" d="m826.001 91.854576l11.705139 -8.803314l11.705139 0l-23.410278 17.606628z" fill-rule="evenodd"/><path fill="#f3f3f3" d="m847.9742 91.854576l11.705139 -8.803314l11.705139 0l-23.410278 17.606628z" fill-rule="evenodd"/><path fill="#f3f3f3" d="m869.5549 91.854576l11.705078 -8.803314l11.705139 0l-23.410217 17.606628z" fill-rule="evenodd"/><path fill="#f3f3f3" d="m891.1355 91.854576l11.705078 -8.803314l11.705139 0l-23.410217 17.606628z" fill-rule="evenodd"/><path fill="#f3f3f3" d="m913.1087 91.854576l11.705078 -8.803314l11.705139 0l-23.410217 17.606628z" fill-rule="evenodd"/><path fill="#f3f3f3" d="m934.68933 91.854576l11.705139 -8.803314l11.705078 0l-23.410217 17.606628z" fill-rule="evenodd"/><path fill="#f3f3f3" d="m957.0011 91.854576l11.705078 -8.803314l11.705139 0l-23.410217 17.606628z" fill-rule="evenodd"/><path fill="#f3f3f3" d="m978.9743 91.854576l11.705078 -8.803314l11.705139 0l-23.410217 17.606628z" fill-rule="evenodd"/><path fill="#f3f3f3" d="m1000.55493 91.854576l11.705139 -8.803314l11.705078 0l-23.410217 17.606628z" fill-rule="evenodd"/><path fill="#f3f3f3" d="m1022.8667 91.854576l11.705078 -8.803314l11.705078 0l-23.410156 17.606628z" fill-rule="evenodd"/><path fill="#f3f3f3" d="m1044.8398 91.854576l11.7052 -8.803314l11.705078 0l-23.410278 17.606628z" fill-rule="evenodd"/><path fill="#f3f3f3" d="m1066.4205 91.854576l11.705078 -8.803314l11.7052 0l-23.410278 17.606628z" fill-rule="evenodd"/><path fill="#f3f3f3" d="m1088.7323 91.854576l11.705078 -8.803314l11.705078 0l-23.410156 17.606628z" fill-rule="evenodd"/><path fill="#f3f3f3" d="m1110.7054 91.854576l11.7052 -8.803314l11.705078 0l-23.410278 17.606628z" fill-rule="evenodd"/><path fill="#f3f3f3" d="m1132.2861 91.854576l11.705078 -8.803314l11.7052 0l-23.410278 17.606628z" fill-rule="evenodd"/><path fill="#f3f3f3" d="m1153.8667 91.854576l11.7052 -8.803314l11.705078 0l-23.410278 17.606628z" fill-rule="evenodd"/><path fill="#f3f3f3" d="m1175.4474 91.854576l11.705078 -8.803314l11.7052 0l-23.410278 17.606628z" fill-rule="evenodd"/><path fill="#f3f3f3" d="m1197.7592 91.854576l11.705078 -8.803314l11.7052 0l-23.410278 17.606628z" fill-rule="evenodd"/><path fill="#f3f3f3" d="m1219.7323 91.854576l11.7052 -8.803314l11.705078 0l-23.410278 17.606628z" fill-rule="evenodd"/><path fill="#f3f3f3" d="m1241.313 91.854576l11.705078 -8.803314l11.7052 0l-23.410278 17.606628z" fill-rule="evenodd"/><path fill="#f3f3f3" d="m1261.9548 91.854576l11.705078 -8.803314l11.7052 0l-23.410278 17.606628z" fill-rule="evenodd"/><path fill="#f3f3f3" d="m1283.5355 91.854576l11.705078 -8.803314l11.705078 0l-23.410156 17.606628z" fill-rule="evenodd"/><path fill="#f3f3f3" d="m1305.1161 91.854576l11.705078 -8.803314l11.7052 0l-23.410278 17.606628z" fill-rule="evenodd"/></g></svg>