<svg version="1.1" viewBox="0.0 0.0 1331.6561679790027 100.0" fill="none" stroke="none" stroke-linecap="square" stroke-miterlimit="10" xmlns:xlink="http://www.w3.org/1999/xlink" xmlns="http://www.w3.org/2000/svg"><clipPath id="p.0"><path d="m0 0l1331.6561 0l0 100.0l-1331.6561 0l0 -100.0z" clip-rule="nonzero"/></clipPath><g clip-path="url(#p.0)"><path fill="#000000" fill-opacity="0.0" d="m0 0l1331.6561 0l0 100.0l-1331.6561 0z" fill-rule="evenodd"/><path fill="#f3f3f3" d="m0 12.95274l1332.2205 0l0 -12.944882l-1332.2205 0z" fill-rule="evenodd"/><path fill="#f3f3f3" d="m-6.417323 8.80208l11.705118 8.803312l11.705117 0l-23.410236 -17.606627z" fill-rule="evenodd"/><path fill="#f3f3f3" d="m15.555884 8.80208l11.705119 8.803312l11.705118 0l-23.410236 -17.606627z" fill-rule="evenodd"/><path fill="#f3f3f3" d="m37.13652 8.80208l11.70512 8.803312l11.705116 0l-23.410236 -17.606627z" fill-rule="evenodd"/><path fill="#f3f3f3" d="m59.448277 8.80208l11.70512 8.803312l11.705116 0l-23.410236 -17.606627z" fill-rule="evenodd"/><path fill="#f3f3f3" d="m81.421486 8.80208l11.705116 8.803312l11.705116 0l-23.410233 -17.606627z" fill-rule="evenodd"/><path fill="#f3f3f3" d="m103.00212 8.80208l11.705116 8.803312l11.705116 0l-23.410233 -17.606627z" fill-rule="evenodd"/><path fill="#f3f3f3" d="m125.31387 8.80208l11.705124 8.803312l11.705109 0l-23.410233 -17.606627z" fill-rule="evenodd"/><path fill="#f3f3f3" d="m147.28708 8.80208l11.705124 8.803312l11.705124 0l-23.410248 -17.606627z" fill-rule="evenodd"/><path fill="#f3f3f3" d="m168.86772 8.80208l11.705124 8.803312l11.705109 0l-23.410233 -17.606627z" fill-rule="evenodd"/><path fill="#f3f3f3" d="m191.17947 8.80208l11.705124 8.803312l11.705109 0l-23.410233 -17.606627z" fill-rule="evenodd"/><path fill="#f3f3f3" d="m213.15268 8.80208l11.705124 8.803312l11.705124 0l-23.410248 -17.606627z" fill-rule="evenodd"/><path fill="#f3f3f3" d="m234.73332 8.80208l11.705124 8.803312l11.705109 0l-23.410233 -17.606627z" fill-rule="evenodd"/><path fill="#f3f3f3" d="m256.31396 8.80208l11.705109 8.803312l11.705109 0l-23.410217 -17.606627z" fill-rule="evenodd"/><path fill="#f3f3f3" d="m278.28717 8.80208l11.705109 8.803312l11.705109 0l-23.410217 -17.606627z" fill-rule="evenodd"/><path fill="#f3f3f3" d="m299.8678 8.80208l11.705109 8.803312l11.705139 0l-23.410248 -17.606627z" fill-rule="evenodd"/><path fill="#f3f3f3" d="m322.17957 8.80208l11.705109 8.803312l11.705109 0l-23.410217 -17.606627z" fill-rule="evenodd"/><path fill="#f3f3f3" d="m344.15277 8.80208l11.705109 8.803312l11.705109 0l-23.410217 -17.606627z" fill-rule="evenodd"/><path fill="#f3f3f3" d="m365.7334 8.80208l11.705109 8.803312l11.705139 0l-23.410248 -17.606627z" fill-rule="evenodd"/><path fill="#f3f3f3" d="m388.04517 8.80208l11.705109 8.803312l11.705109 0l-23.410217 -17.606627z" fill-rule="evenodd"/><path fill="#f3f3f3" d="m410.01837 8.80208l11.705109 8.803312l11.705109 0l-23.410217 -17.606627z" fill-rule="evenodd"/><path fill="#f3f3f3" d="m431.599 8.80208l11.705109 8.803312l11.705139 0l-23.410248 -17.606627z" fill-rule="evenodd"/><path fill="#f3f3f3" d="m453.91077 8.80208l11.705109 8.803312l11.705109 0l-23.410217 -17.606627z" fill-rule="evenodd"/><path fill="#f3f3f3" d="m475.88397 8.80208l11.705109 8.803312l11.705109 0l-23.410217 -17.606627z" fill-rule="evenodd"/><path fill="#f3f3f3" d="m497.4646 8.80208l11.705109 8.803312l11.705109 0l-23.410217 -17.606627z" fill-rule="evenodd"/><path fill="#f3f3f3" d="m519.0452 8.80208l11.705139 8.803312l11.705078 0l-23.410217 -17.606627z" fill-rule="evenodd"/><path fill="#f3f3f3" d="m540.62585 8.80208l11.705139 8.803312l11.705139 0l-23.410278 -17.606627z" fill-rule="evenodd"/><path fill="#f3f3f3" d="m562.9376 8.80208l11.705139 8.803312l11.705078 0l-23.410217 -17.606627z" fill-rule="evenodd"/><path fill="#f3f3f3" d="m584.9108 8.80208l11.705139 8.803312l11.705078 0l-23.410217 -17.606627z" fill-rule="evenodd"/><path fill="#f3f3f3" d="m606.49146 8.80208l11.705139 8.803312l11.705139 0l-23.410278 -17.606627z" fill-rule="evenodd"/><path fill="#f3f3f3" d="m628.4042 8.80208l11.705139 8.803312l11.705139 0l-23.410278 -17.606627z" fill-rule="evenodd"/><path fill="#f3f3f3" d="m650.3774 8.80208l11.705139 8.803312l11.705139 0l-23.410278 -17.606627z" fill-rule="evenodd"/><path fill="#f3f3f3" d="m671.95807 8.80208l11.705078 8.803312l11.705139 0l-23.410217 -17.606627z" fill-rule="evenodd"/><path fill="#f3f3f3" d="m694.2698 8.80208l11.705139 8.803312l11.705139 0l-23.410278 -17.606627z" fill-rule="evenodd"/><path fill="#f3f3f3" d="m716.243 8.80208l11.705139 8.803312l11.705139 0l-23.410278 -17.606627z" fill-rule="evenodd"/><path fill="#f3f3f3" d="m737.82367 8.80208l11.705078 8.803312l11.705139 0l-23.410217 -17.606627z" fill-rule="evenodd"/><path fill="#f3f3f3" d="m760.1354 8.80208l11.705139 8.803312l11.705139 0l-23.410278 -17.606627z" fill-rule="evenodd"/><path fill="#f3f3f3" d="m782.1086 8.80208l11.705139 8.803312l11.705139 0l-23.410278 -17.606627z" fill-rule="evenodd"/><path fill="#f3f3f3" d="m803.6893 8.80208l11.705078 8.803312l11.705139 0l-23.410217 -17.606627z" fill-rule="evenodd"/><path fill="#f3f3f3" d="m826.001 8.80208l11.705139 8.803312l11.705139 0l-23.410278 -17.606627z" fill-rule="evenodd"/><path fill="#f3f3f3" d="m847.9742 8.80208l11.705139 8.803312l11.705139 0l-23.410278 -17.606627z" fill-rule="evenodd"/><path fill="#f3f3f3" d="m869.5549 8.80208l11.705078 8.803312l11.705139 0l-23.410217 -17.606627z" fill-rule="evenodd"/><path fill="#f3f3f3" d="m891.1355 8.80208l11.705078 8.803312l11.705139 0l-23.410217 -17.606627z" fill-rule="evenodd"/><path fill="#f3f3f3" d="m913.1087 8.80208l11.705078 8.803312l11.705139 0l-23.410217 -17.606627z" fill-rule="evenodd"/><path fill="#f3f3f3" d="m934.68933 8.80208l11.705139 8.803312l11.705078 0l-23.410217 -17.606627z" fill-rule="evenodd"/><path fill="#f3f3f3" d="m957.0011 8.80208l11.705078 8.803312l11.705139 0l-23.410217 -17.606627z" fill-rule="evenodd"/><path fill="#f3f3f3" d="m978.9743 8.80208l11.705078 8.803312l11.705139 0l-23.410217 -17.606627z" fill-rule="evenodd"/><path fill="#f3f3f3" d="m1000.55493 8.80208l11.705139 8.803312l11.705078 0l-23.410217 -17.606627z" fill-rule="evenodd"/><path fill="#f3f3f3" d="m1022.8667 8.80208l11.705078 8.803312l11.705078 0l-23.410156 -17.606627z" fill-rule="evenodd"/><path fill="#f3f3f3" d="m1044.8398 8.80208l11.7052 8.803312l11.705078 0l-23.410278 -17.606627z" fill-rule="evenodd"/><path fill="#f3f3f3" d="m1066.4205 8.80208l11.705078 8.803312l11.7052 0l-23.410278 -17.606627z" fill-rule="evenodd"/><path fill="#f3f3f3" d="m1088.7323 8.80208l11.705078 8.803312l11.705078 0l-23.410156 -17.606627z" fill-rule="evenodd"/><path fill="#f3f3f3" d="m1110.7054 8.80208l11.7052 8.803312l11.705078 0l-23.410278 -17.606627z" fill-rule="evenodd"/><path fill="#f3f3f3" d="m1132.2861 8.80208l11.705078 8.803312l11.7052 0l-23.410278 -17.606627z" fill-rule="evenodd"/><path fill="#f3f3f3" d="m1153.8667 8.80208l11.7052 8.803312l11.705078 0l-23.410278 -17.606627z" fill-rule="evenodd"/><path fill="#f3f3f3" d="m1175.4474 8.80208l11.705078 8.803312l11.7052 0l-23.410278 -17.606627z" fill-rule="evenodd"/><path fill="#f3f3f3" d="m1197.7592 8.80208l11.705078 8.803312l11.7052 0l-23.410278 -17.606627z" fill-rule="evenodd"/><path fill="#f3f3f3" d="m1219.7323 8.80208l11.7052 8.803312l11.705078 0l-23.410278 -17.606627z" fill-rule="evenodd"/><path fill="#f3f3f3" d="m1241.313 8.80208l11.705078 8.803312l11.7052 0l-23.410278 -17.606627z" fill-rule="evenodd"/><path fill="#f3f3f3" d="m1261.9548 8.80208l11.705078 8.803312l11.7052 0l-23.410278 -17.606627z" fill-rule="evenodd"/><path fill="#f3f3f3" d="m1283.5355 8.80208l11.705078 8.803312l11.705078 0l-23.410156 -17.606627z" fill-rule="evenodd"/><path fill="#f3f3f3" d="m1305.1161 8.80208l11.705078 8.803312l11.7052 0l-23.410278 -17.606627z" fill-rule="evenodd"/></g></svg>