<svg version="1.1" viewBox="0.0 0.0 116.05511811023622 100.0" fill="none" stroke="none" stroke-linecap="square" stroke-miterlimit="10" xmlns:xlink="http://www.w3.org/1999/xlink" xmlns="http://www.w3.org/2000/svg"><clipPath id="p.0"><path d="m0 0l116.055115 0l0 100.0l-116.055115 0l0 -100.0z" clip-rule="nonzero"/></clipPath><g clip-path="url(#p.0)"><path fill="#000000" fill-opacity="0.0" d="m0 0l116.055115 0l0 100.0l-116.055115 0z" fill-rule="evenodd"/><path fill="#0b5394" d="m21.285666 42.299572l0 0c3.2939682 -16.541143 16.744379 -29.152306 33.45822 -31.370571c16.71384 -2.2182636 32.986248 6.448081 40.478 21.557743l-16.542877 8.208073l0 0c-3.9795456 -8.031025 -12.625168 -12.637768 -21.505627 -11.459078c-8.880455 1.1786919 -16.02694 7.8814983 -17.776577 16.672953z" fill-rule="evenodd"/><path fill="#0b5394" d="m100.060326 23.801504l-10.027672 27.42903l-25.568504 -14.049683z" fill-rule="evenodd"/><path fill="#a61c00" d="m94.76836 57.69967l0 0c-3.2939682 16.541145 -16.744377 29.152306 -33.45822 31.370567c-16.71384 2.2182693 -32.986244 -6.4480743 -40.477997 -21.55774l16.542871 -8.208073l0 0c3.9795494 8.031025 12.625175 12.637768 21.50563 11.45908c8.880455 -1.1786957 16.02694 -7.8815002 17.77658 -16.672955z" fill-rule="evenodd"/><path fill="#a61c00" d="m15.993694 76.19774l10.02767 -27.429031l25.56851 14.049683z" fill-rule="evenodd"/></g></svg>