<svg version="1.1" viewBox="0.0 0.0 116.05511811023622 100.0" fill="none" stroke="none" stroke-linecap="square" stroke-miterlimit="10" xmlns:xlink="http://www.w3.org/1999/xlink" xmlns="http://www.w3.org/2000/svg"><clipPath id="p.0"><path d="m0 0l116.055115 0l0 100.0l-116.055115 0l0 -100.0z" clip-rule="nonzero"/></clipPath><g clip-path="url(#p.0)"><path fill="#000000" fill-opacity="0.0" d="m0 0l116.055115 0l0 100.0l-116.055115 0z" fill-rule="evenodd"/><path fill="#0b5394" d="m20.872345 35.698364l0 0c0 -18.514946 15.0079 -33.524277 33.521084 -33.524277l0 0c8.890343 0 17.416561 3.5320117 23.702984 9.819034c6.2864227 6.2870207 9.8181 14.814052 9.8181 23.705242l0 0c0 18.514946 -15.007904 33.524277 -33.521084 33.524277l0 0c-18.513184 0 -33.521084 -15.009331 -33.521084 -33.524277z" fill-rule="evenodd"/><path fill="#a61c00" d="m26.726414 19.382555l8.604233 -17.20846l22.494514 0l8.604229 17.20846l-8.604229 17.20846l-22.494514 0z" fill-rule="evenodd"/><path stroke="#ffffff" stroke-width="4.0" stroke-linejoin="round" stroke-linecap="butt" d="m26.726414 19.382555l8.604233 -17.20846l22.494514 0l8.604229 17.20846l-8.604229 17.20846l-22.494514 0z" fill-rule="evenodd"/><path fill="#0b5394" d="m54.56188 64.68885l0 0c-1.116993 -2.1665535 -0.26610947 -4.8283043 1.9004974 -5.9451904l15.691502 -8.0889435l0 0c1.0404434 -0.53634644 2.251358 -0.63742447 3.3663483 -0.28099442c1.1149979 0.35643005 2.0427399 1.1411705 2.5791397 2.1815872l15.062691 29.216068c1.1169891 2.1665497 0.26610565 4.8283005 -1.9004974 5.945183l-15.691505 8.088951c-2.166603 1.1168823 -4.828491 0.2659607 -5.945488 -1.9005966z" fill-rule="evenodd"/></g></svg>