<svg version="1.1" viewBox="0.0 0.0 116.05511811023622 100.0" fill="none" stroke="none" stroke-linecap="square" stroke-miterlimit="10" xmlns:xlink="http://www.w3.org/1999/xlink" xmlns="http://www.w3.org/2000/svg"><clipPath id="p.0"><path d="m0 0l116.055115 0l0 100.0l-116.055115 0l0 -100.0z" clip-rule="nonzero"/></clipPath><g clip-path="url(#p.0)"><path fill="#000000" fill-opacity="0.0" d="m0 0l116.055115 0l0 100.0l-116.055115 0z" fill-rule="evenodd"/><path fill="#0b5394" d="m15.633416 14.26463l0 0c0 -3.677598 2.9812822 -6.65888 6.658881 -6.65888l26.634724 0l0 0c1.7660446 0 3.4597588 0.7015581 4.708538 1.9503412c1.2487831 1.2487822 1.9503441 2.9424944 1.9503441 4.708539l0 26.634724c0 3.6776009 -2.981285 6.658882 -6.658882 6.658882l-26.634724 0c-3.677599 0 -6.658881 -2.9812813 -6.658881 -6.658882z" fill-rule="evenodd"/><path fill="#0b5394" d="m15.633416 59.099815l0 0c0 -3.677597 2.9812822 -6.6588783 6.658881 -6.6588783l26.634724 0l0 0c1.7660446 0 3.4597588 0.70155716 4.708538 1.9503403c1.2487831 1.2487831 1.9503441 2.9424934 1.9503441 4.708538l0 26.634727c0 3.677597 -2.981285 6.6588745 -6.658882 6.6588745l-26.634724 0c-3.677599 0 -6.658881 -2.9812775 -6.658881 -6.6588745z" fill-rule="evenodd"/><path fill="#0b5394" d="m60.4686 14.26463l0 0c0 -3.677598 2.981285 -6.65888 6.6588783 -6.65888l26.634727 0l0 0c1.7660446 0 3.459755 0.7015581 4.708542 1.9503412c1.2487793 1.2487822 1.9503403 2.9424944 1.9503403 4.708539l0 26.634724c0 3.6776009 -2.981285 6.658882 -6.658882 6.658882l-26.634727 0c-3.6775932 0 -6.6588783 -2.9812813 -6.6588783 -6.658882z" fill-rule="evenodd"/><path fill="#a61c00" d="m60.4686 59.099815l0 0c0 -3.677597 2.981285 -6.6588783 6.6588783 -6.6588783l26.634727 0l0 0c1.7660446 0 3.459755 0.70155716 4.708542 1.9503403c1.2487793 1.2487831 1.9503403 2.9424934 1.9503403 4.708538l0 26.634727c0 3.677597 -2.981285 6.6588745 -6.658882 6.6588745l-26.634727 0c-3.6775932 0 -6.6588783 -2.9812775 -6.6588783 -6.6588745z" fill-rule="evenodd"/></g></svg>