<svg version="1.1" viewBox="0.0 0.0 116.05511811023622 100.0" fill="none" stroke="none" stroke-linecap="square" stroke-miterlimit="10" xmlns:xlink="http://www.w3.org/1999/xlink" xmlns="http://www.w3.org/2000/svg"><clipPath id="p.0"><path d="m0 0l116.055115 0l0 100.0l-116.055115 0l0 -100.0z" clip-rule="nonzero"/></clipPath><g clip-path="url(#p.0)"><path fill="#000000" fill-opacity="0.0" d="m0 0l116.055115 0l0 100.0l-116.055115 0z" fill-rule="evenodd"/><path fill="#0b5394" d="m80.35749 12.778329l0 0c12.72023 12.721759 13.034729 33.033268 0.7024536 45.367023q-15.203186 15.205021 -22.07547 38.741947q-7.6046333 -23.761139 -23.286095 -39.444485l0 0c-12.720228 -12.72176 -13.034729 -33.033268 -0.7024536 -45.367023l0 0c12.332272 -12.333756 32.641335 -12.019218 45.361565 0.70253944z" fill-rule="evenodd"/><path fill="#a61c00" d="m43.255787 74.68478l0 0c0 -1.5046158 1.2197304 -2.72435 2.7243462 -2.72435l24.096992 0c0.7225418 0 1.4154892 0.28703308 1.9264069 0.7979431c0.51091003 0.51091766 0.7979355 1.203865 0.7979355 1.9264069l0 17.990578c0 1.5046158 -1.2197266 2.72435 -2.7243423 2.72435l-24.096992 0c-1.5046158 0 -2.7243462 -1.2197342 -2.7243462 -2.72435z" fill-rule="evenodd"/><path fill="#ffffff" d="m43.255787 68.87259l29.545689 0l0 3.086914l-29.545689 0z" fill-rule="evenodd"/><path fill="#a61c00" d="m52.687473 94.49695l0 0c0 -2.1259232 1.7233963 -3.8493195 3.8493156 -3.8493195l2.9838982 0l0 0c1.0209007 0 1.9999924 0.4055481 2.721878 1.1274414c0.7218857 0.7218857 1.1274376 1.7009735 1.1274376 2.721878l0 0l0 0c0 2.1259155 -1.7233963 3.8493118 -3.8493156 3.8493118l-2.9838982 0c-2.1259193 0 -3.8493156 -1.7233963 -3.8493156 -3.8493118z" fill-rule="evenodd"/></g></svg>