<svg version="1.1" viewBox="0.0 0.0 116.05511811023622 100.0" fill="none" stroke="none" stroke-linecap="square" stroke-miterlimit="10" xmlns:xlink="http://www.w3.org/1999/xlink" xmlns="http://www.w3.org/2000/svg"><clipPath id="p.0"><path d="m0 0l116.055115 0l0 100.0l-116.055115 0l0 -100.0z" clip-rule="nonzero"/></clipPath><g clip-path="url(#p.0)"><path fill="#000000" fill-opacity="0.0" d="m0 0l116.055115 0l0 100.0l-116.055115 0z" fill-rule="evenodd"/><path fill="#a61c00" d="m28.774277 33.044662l0 0c0 -1.1480808 0.9307022 -2.078783 2.0787811 -2.078783l8.314877 0l0 0c0.55132675 0 1.0800743 0.21901321 1.4699211 0.60886c0.3898468 0.3898487 0.60886 0.91859245 0.60886 1.469923l0 16.094402c0 1.1480789 -0.9307022 2.0787811 -2.0787811 2.0787811l-8.314877 0c-1.1480789 0 -2.0787811 -0.9307022 -2.0787811 -2.0787811z" fill-rule="evenodd"/><path fill="#a61c00" d="m28.774141 33.099113l0 0c0 -16.42773 13.191919 -29.810852 29.617949 -30.04723c16.426033 -0.23637652 29.997581 12.76161 30.470291 29.182537l-12.453117 0.35848618c-0.27672577 -9.61314 -8.2217865 -17.222422 -17.837914 -17.084042c-9.616123 0.1383791 -17.33894 7.9731274 -17.33894 17.590248z" fill-rule="evenodd"/><path fill="#0b5394" d="m22.870071 54.140507l0 0c0 -3.5931358 2.9128113 -6.505947 6.505947 -6.505947l57.30498 0c1.7254868 0 3.3802948 0.6854477 4.600395 1.9055481c1.220108 1.2201042 1.9055481 2.874916 1.9055481 4.600399l0 37.70093c0 3.593132 -2.9128113 6.5059433 -6.5059433 6.5059433l-57.30498 0c-3.5931358 0 -6.505947 -2.9128113 -6.505947 -6.5059433z" fill-rule="evenodd"/><path fill="#ffffff" d="m54.15525 71.54407l0 0c0 -2.5796738 2.0912437 -4.6709213 4.6709175 -4.6709213l0 0l0 0c1.2388077 0 2.4268723 0.49211884 3.3028412 1.3680878c0.8759651 0.8759613 1.3680801 2.0640259 1.3680801 3.3028336l0 8.973686l0 0c0 2.5796738 -2.0912437 4.6709213 -4.6709213 4.6709213l0 0l0 0c-2.5796738 0 -4.6709175 -2.0912476 -4.6709175 -4.6709213z" fill-rule="evenodd"/><path fill="#ffffff" d="m51.64722 67.96993l0 0c0 -3.9648209 3.2141266 -7.1789474 7.1789474 -7.1789474l0 0c1.9039764 0 3.729969 0.7563515 5.0762825 2.102665c1.3463135 1.3463173 2.1026688 3.172306 2.1026688 5.0762825l0 0c0 3.9648209 -3.2141266 7.1789474 -7.1789513 7.1789474l0 0c-3.9648209 0 -7.1789474 -3.2141266 -7.1789474 -7.1789474z" fill-rule="evenodd"/><path fill="#a61c00" d="m76.40422 32.36483l0 0c0 -3.4180775 2.7920456 -6.188978 6.2362137 -6.188978l0 0c1.6539536 0 3.240158 0.6520519 4.4096756 1.8127098c1.1695175 1.1606579 1.8265457 2.734848 1.8265457 4.3762684l0 0c0 3.4180756 -2.7920456 6.1889763 -6.2362213 6.1889763l0 0c-3.444168 0 -6.2362137 -2.7709007 -6.2362137 -6.1889763z" fill-rule="evenodd"/></g></svg>