<svg version="1.1" viewBox="0.0 0.0 116.05511811023622 100.0" fill="none" stroke="none" stroke-linecap="square" stroke-miterlimit="10" xmlns:xlink="http://www.w3.org/1999/xlink" xmlns="http://www.w3.org/2000/svg"><clipPath id="p.0"><path d="m0 0l116.055115 0l0 100.0l-116.055115 0l0 -100.0z" clip-rule="nonzero"/></clipPath><g clip-path="url(#p.0)"><path fill="#000000" fill-opacity="0.0" d="m0 0l116.055115 0l0 100.0l-116.055115 0z" fill-rule="evenodd"/><path fill="#0b5394" d="m3.0040946 72.29934l55.023212 -27.702538l55.023216 27.702538l-55.023216 27.702545z" fill-rule="evenodd"/><path stroke="#ffffff" stroke-width="4.0" stroke-linejoin="round" stroke-linecap="butt" d="m3.0040946 72.29934l55.023212 -27.702538l55.023216 27.702538l-55.023216 27.702545z" fill-rule="evenodd"/><path fill="#a61c00" d="m3.0040946 49.27707l55.023212 -27.70254l55.023216 27.70254l-55.023216 27.702538z" fill-rule="evenodd"/><path stroke="#ffffff" stroke-width="4.0" stroke-linejoin="round" stroke-linecap="butt" d="m3.0040946 49.27707l55.023212 -27.70254l55.023216 27.70254l-55.023216 27.702538z" fill-rule="evenodd"/><path fill="#0b5394" d="m3.0040946 27.7008l55.023212 -27.70254l55.023216 27.70254l-55.023216 27.70254z" fill-rule="evenodd"/><path stroke="#ffffff" stroke-width="4.0" stroke-linejoin="round" stroke-linecap="butt" d="m3.0040946 27.7008l55.023212 -27.70254l55.023216 27.70254l-55.023216 27.70254z" fill-rule="evenodd"/></g></svg>