<svg version="1.1" viewBox="0.0 0.0 116.05511811023622 100.0" fill="none" stroke="none" stroke-linecap="square" stroke-miterlimit="10" xmlns:xlink="http://www.w3.org/1999/xlink" xmlns="http://www.w3.org/2000/svg"><clipPath id="p.0"><path d="m0 0l116.055115 0l0 100.0l-116.055115 0l0 -100.0z" clip-rule="nonzero"/></clipPath><g clip-path="url(#p.0)"><path fill="#000000" fill-opacity="0.0" d="m0 0l116.055115 0l0 100.0l-116.055115 0z" fill-rule="evenodd"/><path fill="#0b5394" d="m30.12238 47.593056l0 0c0 -16.056768 12.49136 -29.073349 27.900234 -29.073349l0 0c7.399605 0 14.49614 3.063076 19.728447 8.515387c5.2323074 5.4523106 8.171791 12.847231 8.171791 20.557962l0 0c0 16.056763 -12.491364 29.073341 -27.900238 29.073341l0 0c-15.4088745 0 -27.900234 -13.016579 -27.900234 -29.073341z" fill-rule="evenodd"/><path fill="#a61c00" d="m28.940855 34.35063l0 0c0.1699791 -15.941139 13.145578 -28.772087 29.087618 -28.763355c15.9420395 0.008732319 28.90358 12.853886 29.056091 28.7952l-29.072014 0.27814102z" fill-rule="evenodd"/><path fill="#a61c00" d="m25.929438 33.557777l0 0c0 -2.1856575 1.7718258 -3.9574814 3.9574814 -3.9574814l56.28103 0c1.0495834 0 2.0561829 0.41694832 2.798355 1.1591187c0.74217224 0.74217224 1.1591187 1.7487717 1.1591187 2.7983627l0 0l0 0c0 2.1856537 -1.7718201 3.9574776 -3.9574738 3.9574776l-56.28103 0c-2.1856556 0 -3.9574814 -1.7718239 -3.9574814 -3.9574776z" fill-rule="evenodd"/><path fill="#ffffff" d="m30.120127 37.53186l55.800476 0l0 3.7313385l-55.800476 0z" fill-rule="evenodd"/><path fill="#a61c00" d="m52.528084 5.2808213l0 0c0 -2.185656 1.7718239 -3.9574804 3.9574814 -3.9574804l3.0811806 0l0 0c1.0495872 0 2.0561905 0.41694772 2.798359 1.1591191c0.74217224 0.7421715 1.1591187 1.7487721 1.1591187 2.7983613l0 0l0 0c0 2.185656 -1.7718239 3.95748 -3.9574776 3.95748l-3.0811806 0c-2.1856575 0 -3.9574814 -1.7718239 -3.9574814 -3.95748z" fill-rule="evenodd"/><path fill="#0b5394" d="m20.87422 88.24154l0 0c0.32297325 -13.605759 16.88048 -24.51881 37.18358 -24.50769c20.30309 0.0111198425 36.833965 10.942291 37.12376 24.548386l-37.154125 0.35546875z" fill-rule="evenodd"/><path fill="#0b5394" d="m20.881296 88.592995l0 0c0 -1.2385559 1.0040531 -2.2426147 2.2426167 -2.2426147l69.80232 0c0.59477997 0 1.1651993 0.23627472 1.5857697 0.6568451c0.42057037 0.420578 0.6568451 0.9909973 0.6568451 1.5857697l0 8.9702c0 1.2385635 -1.0040512 2.2426224 -2.2426147 2.2426224l-69.80232 0c-1.2385635 0 -2.2426167 -1.0040588 -2.2426167 -2.2426224z" fill-rule="evenodd"/></g></svg>