<svg version="1.1" viewBox="0.0 0.0 100.0 100.0" fill="none" stroke="none" stroke-linecap="square" stroke-miterlimit="10" xmlns:xlink="http://www.w3.org/1999/xlink" xmlns="http://www.w3.org/2000/svg"><clipPath id="p.0"><path d="m0 0l100.0 0l0 100.0l-100.0 0l0 -100.0z" clip-rule="nonzero"/></clipPath><g clip-path="url(#p.0)"><path fill="#1c4587" d="m0 0l100.0 0l0 100.0l-100.0 0z" fill-rule="evenodd"/><path fill="#000000" fill-opacity="0.0" d="m0 0l100.0 0l0 100.0l-100.0 0z" fill-rule="evenodd"/><path fill="#ffffff" d="m68.58959 17.102509l0 47.6875q0 9.9375 -5.75 15.4375q-5.734375 5.5 -15.375 5.5q-9.734375 0 -15.71875 -5.640625q-5.984375 -5.65625 -5.984375 -15.78125l13.625 0q0.109375 4.390625 2.09375 6.828125q2.0 2.421875 5.796875 2.421875q3.703125 0 5.640625 -2.328125q1.953125 -2.34375 1.953125 -6.4375l0 -47.6875l13.71875 0z" fill-rule="nonzero"/></g></svg>