<svg version="1.1" viewBox="0.0 0.0 116.05511811023622 100.0" fill="none" stroke="none" stroke-linecap="square" stroke-miterlimit="10" xmlns:xlink="http://www.w3.org/1999/xlink" xmlns="http://www.w3.org/2000/svg"><clipPath id="p.0"><path d="m0 0l116.055115 0l0 100.0l-116.055115 0l0 -100.0z" clip-rule="nonzero"/></clipPath><g clip-path="url(#p.0)"><path fill="#000000" fill-opacity="0.0" d="m0 0l116.055115 0l0 100.0l-116.055115 0z" fill-rule="evenodd"/><path fill="#0b5394" d="m23.089844 13.943099l33.50826 0l0 45.89047l-33.50826 0z" fill-rule="evenodd"/><path fill="#0b5394" d="m57.17267 93.35128l0 0c-12.016209 0.25251007 -23.234524 -6.3771896 -29.38035 -17.362946c-6.1458263 -10.985764 -6.272583 -24.635548 -0.3319702 -35.748287c5.940611 -11.112738 17.033617 -17.976849 29.052172 -17.976849l0 35.54751z" fill-rule="evenodd"/><path fill="#a61c00" d="m92.96229 13.943099l-33.50826 0l0 45.89047l33.50826 0z" fill-rule="evenodd"/><path fill="#a61c00" d="m59.541492 93.358215l0 0c11.940258 0.0011444092 22.974026 -6.7735214 28.944775 -17.771904c5.970749 -10.99839 5.971321 -24.549477 0.0015029907 -35.548435c-5.969818 -10.998957 -17.003014 -17.774677 -28.943268 -17.774677l0 35.54751z" fill-rule="evenodd"/><path fill="#0b5394" d="m56.602993 13.946844l0 -7.306091l-33.50826 7.306091z" fill-rule="evenodd"/><path fill="#a61c00" d="m59.45403 13.946844l0 -7.306091l33.50826 7.306091z" fill-rule="evenodd"/></g></svg>