<svg version="1.1" viewBox="0.0 0.0 116.05511811023622 100.0" fill="none" stroke="none" stroke-linecap="square" stroke-miterlimit="10" xmlns:xlink="http://www.w3.org/1999/xlink" xmlns="http://www.w3.org/2000/svg"><clipPath id="p.0"><path d="m0 0l116.055115 0l0 100.0l-116.055115 0l0 -100.0z" clip-rule="nonzero"/></clipPath><g clip-path="url(#p.0)"><path fill="#000000" fill-opacity="0.0" d="m0 0l116.055115 0l0 100.0l-116.055115 0z" fill-rule="evenodd"/><path fill="#b7b7b7" d="m16.624672 50.0l0 0c0 -22.865458 18.536118 -41.401573 41.401573 -41.401573l0 0c10.980385 0 21.511032 4.3619394 29.275337 12.126242c7.7642975 7.7643013 12.126236 18.294952 12.126236 29.275333l0 0c0 22.865456 -18.53611 41.401573 -41.401573 41.401573l0 0c-22.865456 0 -41.401573 -18.536118 -41.401573 -41.401573zm11.993208 0l0 0c0 16.24179 13.1665745 29.408363 29.408365 29.408363c16.24179 0 29.408371 -13.166573 29.408371 -29.408363c0 -16.24179 -13.16658 -29.408367 -29.408371 -29.408367l0 0c-16.24179 0 -29.408365 13.166576 -29.408365 29.408367z" fill-rule="evenodd"/><path fill="#666666" d="m39.060368 50.0l0 0c0 -2.852745 2.3126068 -5.1653557 5.1653557 -5.1653557l0 0c1.3699341 0 2.6837654 0.5442085 3.6524544 1.5128975c0.9686928 0.9686928 1.5128975 2.2825203 1.5128975 3.6524582l0 0c0 2.852745 -2.3126068 5.1653557 -5.165352 5.1653557l0 0c-2.8527489 0 -5.1653557 -2.3126106 -5.1653557 -5.1653557z" fill-rule="evenodd"/><path fill="#666666" d="m52.861843 50.0l0 0c0 -2.852745 2.3126068 -5.1653557 5.1653557 -5.1653557l0 0c1.3699341 0 2.6837654 0.5442085 3.6524544 1.5128975c0.9686928 0.9686928 1.5128975 2.2825203 1.5128975 3.6524582l0 0c0 2.852745 -2.3126068 5.1653557 -5.165352 5.1653557l0 0c-2.8527489 0 -5.1653557 -2.3126106 -5.1653557 -5.1653557z" fill-rule="evenodd"/><path fill="#666666" d="m66.663315 50.0l0 0c0 -2.852745 2.3126144 -5.1653557 5.1653595 -5.1653557l0 0c1.3699341 0 2.6837616 0.5442085 3.6524582 1.5128975c0.96868896 0.9686928 1.5128937 2.2825203 1.5128937 3.6524582l0 0c0 2.852745 -2.3126068 5.1653557 -5.165352 5.1653557l0 0c-2.852745 0 -5.1653595 -2.3126106 -5.1653595 -5.1653557z" fill-rule="evenodd"/></g></svg>