<svg version="1.1" viewBox="0.0 0.0 116.05511811023622 100.0" fill="none" stroke="none" stroke-linecap="square" stroke-miterlimit="10" xmlns:xlink="http://www.w3.org/1999/xlink" xmlns="http://www.w3.org/2000/svg"><clipPath id="p.0"><path d="m0 0l116.055115 0l0 100.0l-116.055115 0l0 -100.0z" clip-rule="nonzero"/></clipPath><g clip-path="url(#p.0)"><path fill="#000000" fill-opacity="0.0" d="m0 0l116.055115 0l0 100.0l-116.055115 0z" fill-rule="evenodd"/><path fill="#0b5394" d="m20.01195 56.157l0 0c-2.0217896E-4 -2.0217896E-4 -2.0217896E-4 -5.340576E-4 0 -7.362366E-4l44.17762 -44.176884c9.918213E-5 -9.727478E-5 2.2888184E-4 -1.5258789E-4 3.6621094E-4 -1.5258789E-4c1.373291E-4 0 2.746582E-4 5.531311E-5 3.7384033E-4 1.5258789E-4l17.038048 17.038792c2.0599365E-4 2.040863E-4 2.0599365E-4 5.3215027E-4 0 7.362366E-4l-44.177616 44.176884l0 0c-2.0217896E-4 2.0599365E-4 -5.302429E-4 2.0599365E-4 -7.362366E-4 0z" fill-rule="evenodd"/><path fill="#0b5394" d="m13.864061 16.87958l0 0c-1.0172462 -1.0172462 -1.0172462 -2.6665277 0 -3.683774l7.3673286 -7.3673277l0 0c0.4884987 -0.48849916 1.1510448 -0.7629347 1.8418865 -0.7629347c0.6908417 0 1.3533878 0.27443552 1.8418865 0.7629347l20.869768 20.869766c1.0172424 1.0172462 1.0172424 2.6665268 0 3.683773l-7.3673286 7.3673267c-1.0172462 1.0172462 -2.6665306 1.0172462 -3.6837769 0z" fill-rule="evenodd"/><path fill="#a61c00" d="m97.79937 45.595882l0 0c2.0599365E-4 2.0217896E-4 2.0599365E-4 5.302429E-4 0 7.362366E-4l-44.17762 44.17688c-9.536743E-5 9.918213E-5 -2.2888184E-4 1.5258789E-4 -3.6621094E-4 1.5258789E-4c-1.373291E-4 0 -2.708435E-4 -5.340576E-5 -3.7002563E-4 -1.5258789E-4l-17.038052 -17.038788c-2.0599365E-4 -2.0599365E-4 -2.0599365E-4 -5.340576E-4 0 -7.4005127E-4l44.17762 -44.17688l0 0c1.9836426E-4 -2.040863E-4 5.264282E-4 -2.040863E-4 7.324219E-4 0z" fill-rule="evenodd"/><path fill="#a61c00" d="m102.18936 83.120255l0 0c1.0172424 1.0172501 1.0172424 2.6665268 0 3.6837769l-7.3673325 7.367325l0 0c-0.48849487 0.4885025 -1.1510468 0.76293945 -1.8418884 0.76293945c-0.6908417 0 -1.3533859 -0.27443695 -1.8418884 -0.76293945l-19.12838 -19.12838c-1.0172424 -1.0172424 -1.0172424 -2.6665268 0 -3.6837692l7.3673325 -7.3673325c1.0172424 -1.0172462 2.6665268 -1.0172462 3.6837769 0z" fill-rule="evenodd"/><path fill="#a61c00" d="m52.77643 66.83331l0 0c1.0172462 1.0172501 1.0172462 2.6665344 0 3.6837769l-7.3673286 7.367325l0 0c-0.4884987 0.4885025 -1.1510429 0.76293945 -1.8418846 0.76293945c-0.6908417 0 -1.3533897 -0.27443695 -1.8418884 -0.76293945l-9.805269 -9.805267c-1.0172462 -1.0172424 -1.0172462 -2.6665268 0 -3.6837692l7.3673306 -7.3673286c1.0172462 -1.0172462 2.6665268 -1.0172462 3.683773 0z" fill-rule="evenodd"/><path fill="#0b5394" d="m63.820198 55.789547l0 0c1.0172424 1.0172462 1.0172424 2.6665306 0 3.6837769l-7.3673286 7.3673286l0 0c-0.4884987 0.48849487 -1.1510468 0.7629318 -1.8418884 0.7629318c-0.6908417 0 -1.3533897 -0.27443695 -1.8418884 -0.7629318l-9.805267 -9.805271c-1.0172462 -1.0172462 -1.0172462 -2.6665268 0 -3.683773l7.3673286 -7.3673286c1.0172462 -1.0172462 2.6665268 -1.0172462 3.683773 0z" fill-rule="evenodd"/><path fill="#a61c00" d="m74.86397 44.74578l0 0c1.0172424 1.0172462 1.0172424 2.6665268 0 3.683773l-7.3673325 7.3673286l0 0c-0.48849487 0.4884987 -1.1510468 0.76293564 -1.8418884 0.76293564c-0.6908417 0 -1.3533859 -0.27443695 -1.8418846 -0.76293564l-9.805267 -9.805267c-1.0172462 -1.0172462 -1.0172462 -2.6665306 0 -3.6837769l7.3673286 -7.367325c1.0172462 -1.0172462 2.6665268 -1.0172462 3.6837692 0z" fill-rule="evenodd"/><path fill="#0b5394" d="m85.90773 33.70201l0 0c1.0172501 1.0172462 1.0172501 2.6665306 0 3.6837769l-7.367325 7.367325l0 0c-0.4885025 0.4884987 -1.1510468 0.76293564 -1.8418884 0.76293564c-0.6908417 0 -1.3533859 -0.27443695 -1.8418884 -0.76293564l-9.805267 -9.805267c-1.0172424 -1.0172462 -1.0172424 -2.6665268 0 -3.683773l7.3673325 -7.3673286c1.0172424 -1.0172462 2.6665268 -1.0172462 3.6837692 0z" fill-rule="evenodd"/><path fill="#0b5394" d="m19.61676 55.757347l0 0c-4.7051315 -4.7051315 1.3701019 -18.408894 13.569416 -30.608204l0 0c12.19931 -12.199313 25.903072 -18.274548 30.608204 -13.569414l0 0c4.7051315 4.7051315 -1.3701019 18.408892 -13.569416 30.608206l0 0c-12.19931 12.19931 -25.90307 18.274544 -30.608204 13.569412z" fill-rule="evenodd"/><path fill="#a61c00" d="m53.411926 89.55251l0 0c-4.7051315 -4.7051315 1.3701019 -18.408897 13.569412 -30.608208l0 0c12.19931 -12.19931 25.903076 -18.274544 30.608208 -13.569412l0 0c4.7051315 4.7051315 -1.3701019 18.40889 -13.56942 30.608208l0 0c-12.19931 12.19931 -25.903069 18.274544 -30.6082 13.569412z" fill-rule="evenodd"/><path fill="#ffffff" d="m40.762558 56.406593l0 0c-0.40007782 -0.40008163 -0.40007782 -1.0487404 0 -1.4488182l0 0l0 0c0.19212723 -0.19212723 0.45270538 -0.30006027 0.724411 -0.30006027c0.27170563 0 0.5322838 0.107933044 0.7244072 0.30006027l13.007877 13.00787c0.40007782 0.40008545 0.40007782 1.0487442 0 1.448822l0 0l0 0c-0.40008163 0.40007782 -1.0487404 0.40007782 -1.448822 0z" fill-rule="evenodd"/><path fill="#ffffff" d="m51.53762 44.93775l0 0c-0.40007782 -0.40008163 -0.40007782 -1.0487404 0 -1.448822l0 0l0 0c0.19212723 -0.19212341 0.45270538 -0.30006027 0.724411 -0.30006027c0.27170563 0 0.5322838 0.10793686 0.7244072 0.30006027l13.354336 13.354332c0.40007782 0.40008163 0.40007782 1.0487404 0 1.4488182l0 0l0 0c-0.40008545 0.40008163 -1.0487442 0.40008163 -1.448822 0z" fill-rule="evenodd"/><path fill="#ffffff" d="m62.603546 33.960438l0 0c-0.40007782 -0.40008163 -0.40007782 -1.0487404 0 -1.448822l0 0l0 0c0.19212723 -0.19212341 0.45270538 -0.30006027 0.724411 -0.30006027c0.27170563 0 0.5322838 0.10793686 0.724411 0.30006027l13.291336 13.29134c0.40007782 0.40008163 0.40007782 1.0487404 0 1.4488182l0 0l0 0c-0.40007782 0.40008163 -1.0487366 0.40008163 -1.4488144 0z" fill-rule="evenodd"/><path fill="#ffffff" d="m30.021156 68.70878l0 0c-0.40007973 0.40007782 -1.0487385 0.40007782 -1.4488182 0l0 0l0 0c-0.19212532 -0.19213104 -0.30006027 -0.45270538 -0.30006027 -0.724411c0 -0.27170563 0.10793495 -0.5322876 0.30006027 -0.724411l12.125984 -12.125984c0.40007782 -0.40008163 1.0487366 -0.40008163 1.4488182 0l0 0l0 0c0.40008163 0.40008163 0.40008163 1.0487366 0 1.4488182z" fill-rule="evenodd"/><path fill="#ffffff" d="m55.118244 69.25726l0 0c-0.40008163 0.40007782 -1.0487366 0.40007782 -1.4488182 0l0 0l0 0c-0.19212723 -0.19212341 -0.30006027 -0.45270538 -0.30006027 -0.724411c0 -0.27170563 0.107933044 -0.53227997 0.30006027 -0.724411l10.992126 -10.992123c0.40007782 -0.40008163 1.0487366 -0.40008163 1.4488144 0l0 0l0 0c0.40008545 0.40008163 0.40008545 1.0487366 0 1.4488182z" fill-rule="evenodd"/><path fill="#ffffff" d="m78.1389 46.601192l0 0c-0.40008545 0.40008163 -1.0487442 0.40008163 -1.448822 0l0 0l0 0c-0.19212341 -0.19212723 -0.30005646 -0.45270538 -0.30005646 -0.724411c0 -0.27170563 0.107933044 -0.5322838 0.30005646 -0.7244072l10.141731 -10.141735c0.40008545 -0.40007782 1.0487442 -0.40007782 1.448822 0l0 0l0 0c0.40007782 0.40008163 0.40007782 1.0487404 0 1.448822z" fill-rule="evenodd"/><path fill="#ffffff" d="m52.944767 44.950077l0 0c-0.40007782 0.40008163 -1.0487366 0.40008163 -1.4488182 0l0 0l0 0c-0.19212341 -0.19212341 -0.30006027 -0.45270157 -0.30006027 -0.7244072c0 -0.27170563 0.10793686 -0.5322838 0.30006027 -0.724411l10.929134 -10.929134c0.40008163 -0.40007782 1.0487404 -0.40007782 1.4488182 0l0 0l0 0c0.40007782 0.40008163 0.40007782 1.0487404 0 1.448822z" fill-rule="evenodd"/></g></svg>