<svg version="1.1" viewBox="0.0 0.0 116.05511811023622 100.0" fill="none" stroke="none" stroke-linecap="square" stroke-miterlimit="10" xmlns:xlink="http://www.w3.org/1999/xlink" xmlns="http://www.w3.org/2000/svg"><clipPath id="p.0"><path d="m0 0l116.055115 0l0 100.0l-116.055115 0l0 -100.0z" clip-rule="nonzero"/></clipPath><g clip-path="url(#p.0)"><path fill="#000000" fill-opacity="0.0" d="m0 0l116.055115 0l0 100.0l-116.055115 0z" fill-rule="evenodd"/><path fill="#0b5394" d="m1.610659 22.174328l0 0c0 -9.181321 7.4422784 -16.624252 16.622793 -16.624252l0 0c4.40864 0 8.636713 1.7514787 11.754091 4.8691306c3.1173801 3.117652 4.868704 7.346095 4.868704 11.755122l0 0c0 9.18132 -7.442278 16.624252 -16.622795 16.624252l0 0c-9.180514 0 -16.622793 -7.442932 -16.622793 -16.624252z" fill-rule="evenodd"/><path fill="#0b5394" d="m81.19836 22.174328l0 0c0 -9.181321 7.442276 -16.624252 16.622795 -16.624252l0 0c4.408638 0 8.636711 1.7514787 11.754089 4.8691306c3.1173782 3.117652 4.8687057 7.346095 4.8687057 11.755122l0 0c0 9.18132 -7.4422836 16.624252 -16.622795 16.624252l0 0c-9.180519 0 -16.622795 -7.442932 -16.622795 -16.624252z" fill-rule="evenodd"/><path fill="#0b5394" d="m25.858217 94.45099l32.168518 -55.653545l32.168518 55.653545z" fill-rule="evenodd"/><path fill="#a61c00" d="m7.260793 38.797443l101.531876 0l0 6.2475586l-101.531876 0z" fill-rule="evenodd"/></g></svg>