<svg version="1.1" viewBox="0.0 0.0 116.05511811023622 100.0" fill="none" stroke="none" stroke-linecap="square" stroke-miterlimit="10" xmlns:xlink="http://www.w3.org/1999/xlink" xmlns="http://www.w3.org/2000/svg"><clipPath id="p.0"><path d="m0 0l116.055115 0l0 100.0l-116.055115 0l0 -100.0z" clip-rule="nonzero"/></clipPath><g clip-path="url(#p.0)"><path fill="#000000" fill-opacity="0.0" d="m0 0l116.055115 0l0 100.0l-116.055115 0z" fill-rule="evenodd"/><path fill="#a61c00" d="m35.277035 19.70816l0 0c0 -5.514344 4.4702606 -9.984604 9.984604 -9.984604l39.937214 0l0 0c2.648079 0 5.187706 1.0519466 7.0601807 2.9244232c1.8724747 1.8724756 2.9244232 4.412098 2.9244232 7.0601807l0 48.72928c0 5.514351 -4.4702606 9.984604 -9.984604 9.984604l-39.937214 0c-5.5143433 0 -9.984604 -4.470253 -9.984604 -9.984604z" fill-rule="evenodd"/><path fill="#ffffff" d="m23.598848 28.9l0 0c0 -5.618969 4.5550747 -10.174044 10.174044 -10.174044l40.69495 0l0 0c2.698326 0 5.286133 1.0719051 7.1941376 2.979908c1.9079971 1.9080029 2.9799042 4.4958115 2.9799042 7.1941357l0 49.654167c0 5.618965 -4.555069 10.174042 -10.174042 10.174042l-40.69495 0c-5.618969 0 -10.174044 -4.5550766 -10.174044 -10.174042z" fill-rule="evenodd"/><path fill="#0b5394" d="m20.872818 31.560993l0 0c0 -5.5143433 4.4702587 -9.984602 9.984604 -9.984602l39.93721 0l0 0c2.6480865 0 5.187706 1.0519447 7.0601807 2.9244213c1.8724747 1.8724766 2.9244232 4.4121 2.9244232 7.0601807l0 48.729282c0 5.5143433 -4.4702606 9.984604 -9.984604 9.984604l-39.93721 0c-5.514345 0 -9.984604 -4.4702606 -9.984604 -9.984604z" fill-rule="evenodd"/></g></svg>