<svg version="1.1" viewBox="0.0 0.0 116.05511811023622 100.0" fill="none" stroke="none" stroke-linecap="square" stroke-miterlimit="10" xmlns:xlink="http://www.w3.org/1999/xlink" xmlns="http://www.w3.org/2000/svg"><clipPath id="p.0"><path d="m0 0l116.055115 0l0 100.0l-116.055115 0l0 -100.0z" clip-rule="nonzero"/></clipPath><g clip-path="url(#p.0)"><path fill="#000000" fill-opacity="0.0" d="m0 0l116.055115 0l0 100.0l-116.055115 0z" fill-rule="evenodd"/><path fill="#0b5394" d="m107.831985 49.99912l0 0c0 27.176952 -21.786858 49.336353 -48.9599 49.797092c-27.173046 0.46073914 -49.698624 -20.947311 -50.619972 -48.108643l17.407532 -0.5904846c0.59913254 17.662468 15.2470665 31.583694 32.917152 31.284088c17.67009 -0.29960632 31.837646 -14.709427 31.837646 -32.382053z" fill-rule="evenodd"/><path fill="#0b5394" d="m34.301342 46.49153l0 0c0 -13.10347 10.622463 -23.725935 23.725937 -23.725935l0 0c6.292507 0 12.327297 2.499689 16.776768 6.9491653c4.449478 4.4494762 6.9491653 10.484262 6.9491653 16.77677l0 0c0 13.103474 -10.622459 23.725937 -23.725933 23.725937l0 0c-13.103474 0 -23.725937 -10.622463 -23.725937 -23.725937z" fill-rule="evenodd"/><path fill="#0b5394" d="m8.223485 50.884323l0 0c0 -4.841484 3.9165707 -8.766285 8.747907 -8.766285l0 0c2.3200874 0 4.5451527 0.9235878 6.1857033 2.567585c1.6405506 1.6439972 2.5622005 3.8737373 2.5622005 6.1987l0 0c0 4.841484 -3.9165707 8.766281 -8.747904 8.766281l0 0c-4.831336 0 -8.747907 -3.924797 -8.747907 -8.766281z" fill-rule="evenodd"/><path fill="#a61c00" d="m81.410484 1.728406l3.6388397 -1.2129449l14.922897 44.14384l-3.6388397 1.2129478z" fill-rule="evenodd"/><path fill="#0b5394" d="m90.33618 49.570297l0 0c0 -4.841484 3.916565 -8.766281 8.747902 -8.766281l0 0c2.3200912 0 4.5451508 0.9235878 6.185707 2.567585c1.6405487 1.6439972 2.5621948 3.8737335 2.5621948 6.198696l0 0c0 4.841484 -3.916565 8.766285 -8.747902 8.766285l0 0c-4.831337 0 -8.747902 -3.9248009 -8.747902 -8.766285z" fill-rule="evenodd"/></g></svg>