<svg version="1.1" viewBox="0.0 0.0 116.05511811023622 100.0" fill="none" stroke="none" stroke-linecap="square" stroke-miterlimit="10" xmlns:xlink="http://www.w3.org/1999/xlink" xmlns="http://www.w3.org/2000/svg"><clipPath id="p.0"><path d="m0 0l116.055115 0l0 100.0l-116.055115 0l0 -100.0z" clip-rule="nonzero"/></clipPath><g clip-path="url(#p.0)"><path fill="#000000" fill-opacity="0.0" d="m0 0l116.055115 0l0 100.0l-116.055115 0z" fill-rule="evenodd"/><path fill="#0b5394" d="m51.173447 34.424408l13.617989 0l0 0c7.1304855 0 13.968925 2.832573 19.010933 7.874584c5.042015 5.0420113 7.874588 11.880451 7.874588 19.010933l0 26.885517c0 3.1280518E-4 -2.5177002E-4 5.645752E-4 -5.645752E-4 5.645752E-4l-67.38846 -5.645752E-4l0 0c-3.1089783E-4 0 -5.607605E-4 -2.5177002E-4 -5.607605E-4 -5.645752E-4l5.607605E-4 -26.884953l0 0c0 -14.848461 12.037056 -26.885517 26.885517 -26.885517z" fill-rule="evenodd"/><path fill="#a61c00" d="m1.9206674 37.52642l0 0c0 -14.20558 25.099617 -25.72148 56.061565 -25.72148c30.961945 0 56.06156 11.5159 56.06156 25.72148l-12.860741 0l0 0c0 -7.102791 -19.341667 -12.860739 -43.20082 -12.860739c-23.859158 0 -43.200825 5.757948 -43.200825 12.860739z" fill-rule="evenodd"/><path fill="#a61c00" d="m111.64918 45.279076l0 0c3.9056702 -5.1499557 3.0793304 -12.718048 -1.8456802 -16.903807l-6.8475647 -5.8197384l0 0c-2.3650742 -2.0100727 -5.3783493 -2.9553852 -8.376938 -2.6279774c-2.9985886 0.32740593 -5.736862 1.900713 -7.6124268 4.373808l0 0l0 0c-3.9056702 5.1499557 -3.079338 12.718048 1.8456726 16.903809l6.8475723 5.8197365c4.9250107 4.1857605 12.083694 3.4041252 15.989365 -1.7458305z" fill-rule="evenodd"/><path fill="#a61c00" d="m4.407499 45.279076l0 0c-3.9056706 -5.1499557 -3.0793328 -12.718048 1.8456774 -16.903807l6.847568 -5.8197384l0 0c2.3650742 -2.0100727 5.3783474 -2.9553852 8.376934 -2.6279774c2.9985867 0.32740593 5.7368584 1.900713 7.6124287 4.373808l0 0l0 0c3.9056702 5.1499557 3.0793343 12.718048 -1.8456764 16.903809l-6.8475685 5.8197365c-4.9250107 4.1857605 -12.083693 3.4041252 -15.989363 -1.7458305z" fill-rule="evenodd"/><path fill="#0b5394" d="m43.922203 34.78947l0 0c0 -2.7512512 2.2303276 -4.981579 4.981579 -4.981579l18.249111 0l0 0c1.3211975 0 2.5882797 0.5248432 3.5225067 1.4590702c0.934227 0.9342289 1.4590759 2.201311 1.4590759 3.5225086l0 0l0 0c0 2.7512512 -2.2303314 4.9815826 -4.9815826 4.9815826l-18.249111 0c-2.7512512 0 -4.981579 -2.2303314 -4.981579 -4.9815826z" fill-rule="evenodd"/></g></svg>