<svg version="1.1" viewBox="0.0 0.0 116.05511811023622 100.0" fill="none" stroke="none" stroke-linecap="square" stroke-miterlimit="10" xmlns:xlink="http://www.w3.org/1999/xlink" xmlns="http://www.w3.org/2000/svg"><clipPath id="p.0"><path d="m0 0l116.055115 0l0 100.0l-116.055115 0l0 -100.0z" clip-rule="nonzero"/></clipPath><g clip-path="url(#p.0)"><path fill="#000000" fill-opacity="0.0" d="m0 0l116.055115 0l0 100.0l-116.055115 0z" fill-rule="evenodd"/><path fill="#0b5394" d="m1.612861 22.996351l0 0c0 -7.222579 5.855056 -13.077635 13.077635 -13.077635l58.82867 0c3.4684067 0 6.794754 1.3778181 9.247284 3.83035c2.45253 2.4525328 3.8303528 5.77888 3.8303528 9.247285l0 41.506332c0 7.2225723 -5.855057 13.077629 -13.077637 13.077629l-58.82867 0l0 0c-7.2225785 0 -13.077635 -5.855057 -13.077635 -13.077629z" fill-rule="evenodd"/><path fill="#0b5394" d="m22.585102 45.59619l0 0c0 -8.342514 6.762945 -15.105459 15.105457 -15.105459l61.644768 0l0 0c4.006218 0 7.8483505 1.5914631 10.681175 4.424288c2.8328247 2.832821 4.424286 6.6749535 4.424286 10.681171l0 8.765884l0 0c0 8.342514 -6.762947 15.1054535 -15.105461 15.1054535l-61.644768 0c-8.342512 0 -15.105457 -6.7629395 -15.105457 -15.1054535z" fill-rule="evenodd"/><path fill="#0b5394" d="m22.585102 51.547974l0 0c0 -1.4943924 1.2114449 -2.7058372 2.7058372 -2.7058372l86.44401 0c0.7176361 0 1.4058762 0.28507614 1.9133224 0.7925186c0.50743866 0.5074463 0.7925186 1.1956863 0.7925186 1.9133186l0 23.273125c0 1.4943924 -1.2114487 2.7058334 -2.705841 2.7058334l-86.44401 0c-1.4943924 0 -2.7058372 -1.211441 -2.7058372 -2.7058334z" fill-rule="evenodd"/><path fill="#ffffff" d="m14.3098135 75.14168l0 0c0 -8.251137 6.6882315 -14.940002 14.938582 -14.940002l0 0c3.961958 0 7.7616444 1.5740318 10.563173 4.375824c2.801529 2.801796 4.375408 6.601845 4.375408 10.564178l0 0c0 8.251137 -6.6882286 14.940002 -14.938581 14.940002l0 0c-8.250351 0 -14.938582 -6.6888657 -14.938582 -14.940002z" fill-rule="evenodd"/><path fill="#a61c00" d="m16.859436 75.1516l0 0c0 -6.848442 5.5512314 -12.4002 12.399023 -12.4002l0 0c3.2884274 0 6.4421673 1.3064499 8.767435 3.6319351c2.3252678 2.3254929 3.631588 5.4795303 3.631588 8.768265l0 0c0 6.848442 -5.5512314 12.4002 -12.399023 12.4002l0 0c-6.8477917 0 -12.399023 -5.551758 -12.399023 -12.4002z" fill-rule="evenodd"/><path fill="#ffffff" d="m73.27141 75.14168l0 0c0 -8.251137 6.6882324 -14.940002 14.938583 -14.940002l0 0c3.9619598 0 7.7616425 1.5740318 10.563171 4.375824c2.801529 2.801796 4.375412 6.601845 4.375412 10.564178l0 0c0 8.251137 -6.6882324 14.940002 -14.938583 14.940002l0 0c-8.250351 0 -14.938583 -6.6888657 -14.938583 -14.940002z" fill-rule="evenodd"/><path fill="#a61c00" d="m75.82103 75.1516l0 0c0 -6.848442 5.5512314 -12.4002 12.399025 -12.4002l0 0c3.2884216 0 6.4421616 1.3064499 8.767433 3.6319351c2.325264 2.3254929 3.6315918 5.4795303 3.6315918 8.768265l0 0c0 6.848442 -5.5512314 12.4002 -12.399025 12.4002l0 0c-6.8477936 0 -12.399025 -5.551758 -12.399025 -12.4002z" fill-rule="evenodd"/></g></svg>