<svg version="1.1" viewBox="0.0 0.0 578.3805774278215 534.3464566929134" fill="none" stroke="none" stroke-linecap="square" stroke-miterlimit="10" xmlns:xlink="http://www.w3.org/1999/xlink" xmlns="http://www.w3.org/2000/svg"><clipPath id="p.0"><path d="m0 0l578.38055 0l0 534.34644l-578.38055 0l0 -534.34644z" clip-rule="nonzero"/></clipPath><g clip-path="url(#p.0)"><path fill="#000000" fill-opacity="0.0" d="m0 0l578.38055 0l0 534.34644l-578.38055 0z" fill-rule="evenodd"/><path fill="#999999" d="m174.97061 48.821682l0 0c2.1848145 -7.9984894 12.74411 -12.058132 23.584839 -9.067459c10.8407135 2.9906693 17.857712 11.899143 15.672897 19.897636l0 0c-4.0547028 -5.3583794 -10.534439 -9.542522 -17.943161 -11.586391c-7.4087067 -2.0438728 -15.105957 -1.7707825 -21.314575 0.75621414z" fill-rule="evenodd"/><path fill="#999999" d="m202.17014 40.997314l21.417923 10.525387l-1.2263947 2.404419l-21.417923 -10.525383z" fill-rule="evenodd"/><path fill="#999999" d="m187.677 40.62956l0.84846497 4.536194l-2.4739075 0.82899857l-2.1226654 -4.109211z" fill-rule="evenodd"/><path fill="#d9d9d9" d="m152.08228 69.128876l0 0c16.628616 12.296738 4.2997437 57.05149 -27.53733 99.96254c-31.837067 42.911057 -71.126274 67.72887 -87.7549 55.43213l0 0c47.483727 -36.402832 94.25124 -99.43763 115.29223 -155.39467z" fill-rule="evenodd"/><path fill="#d9d9d9" d="m152.69293 70.58276l111.90689 50.525574l-67.78125 144.76346l-111.90689 -50.525574z" fill-rule="evenodd"/><path fill="#d9d9d9" d="m201.36584 320.2142l0 0c-9.676041 18.26538 -55.881577 12.849121 -103.202965 -12.097595c-47.321396 -24.946686 -77.83899 -59.977036 -68.162964 -78.24243l0 0c8.437283 21.022629 37.52499 46.99344 74.414795 66.44089c36.8898 19.447418 74.78665 28.789246 96.951126 23.89914z" fill-rule="evenodd"/><path fill="#d9d9d9" d="m153.65797 81.11673l0 0c15.938812 13.178665 1.2106476 57.20195 -32.89627 98.328766c-34.10691 41.126816 -74.67697 63.783264 -90.615776 50.6046l0 0c49.378006 -33.781464 99.479836 -94.19527 123.51205 -148.93336z" fill-rule="evenodd"/><path fill="#d9d9d9" d="m267.569 139.85454l0 0c-19.43686 -7.1034546 -50.068924 27.576385 -68.41864 77.45958c-18.349731 49.88318 -17.46843 96.07999 1.9684143 103.18344l0 0c4.293396 -59.331116 31.248474 -132.60776 66.450226 -180.64302z" fill-rule="evenodd"/><path fill="#d9d9d9" d="m154.18915 82.601555l109.00589 56.50718l-75.4993 140.88788l-109.00589 -56.50717z" fill-rule="evenodd"/><path fill="#d9d9d9" d="m83.62895 184.97206l128.07727 67.39575l-36.45688 68.94469l-128.07727 -67.39577z" fill-rule="evenodd"/><path fill="#d9d9d9" d="m171.48862 47.436993l0 0c2.537094 -4.7870636 8.50206 -6.663872 13.32312 -4.191967l96.46387 49.46c2.315155 1.1870499 4.0515137 3.2386932 4.827057 5.703583c0.7755432 2.4648895 0.5267639 5.1411133 -0.69158936 7.439949l-18.374786 34.669952c-2.5370789 4.7870636 -8.502045 6.663864 -13.323105 4.191971l-96.46388 -49.460007c-4.82106 -2.4719086 -6.6725616 -8.356461 -4.1354675 -13.143532z" fill-rule="evenodd"/><path fill="#d9d9d9" d="m201.30873 319.85l0 0c-6.5089874 12.278168 -50.050705 2.0533752 -97.25314 -22.837769c-47.202435 -24.891144 -80.190994 -55.022827 -73.68201 -67.30101l0 0c10.64533 16.75769 41.0905 39.96376 77.88757 59.367874c36.797073 19.404114 73.168076 31.432007 93.04758 30.770905z" fill-rule="evenodd"/><path fill="#d9d9d9" d="m50.33176 258.31168l-19.701138 -27.59581l34.643623 -4.1195526z" fill-rule="evenodd"/><path fill="#d9d9d9" d="m166.124 317.45993l33.8136 3.08609l-13.880707 -31.940277z" fill-rule="evenodd"/><path fill="#d9d9d9" d="m77.341354 249.44171l81.7439 43.02591l-11.102371 20.977295l-81.7439 -43.02594z" fill-rule="evenodd"/><path fill="#d9d9d9" d="m173.03546 58.770042l0 0c0.62620544 -7.845051 10.553497 -13.422104 22.173218 -12.456692c11.61972 0.96541214 20.531723 8.107704 19.905518 15.952755l0 0c-4.373749 -5.0867004 -12.023758 -8.547241 -20.440826 -9.246563c-8.417053 -0.69932175 -16.515076 1.4528122 -21.637909 5.7504997z" fill-rule="evenodd"/><path fill="#b45f06" d="m167.80713 46.72441c153.13647 61.08661 252.06036 204.77165 405.19684 265.85828l-32.527527 49.55905c-153.1365 -61.08661 -252.0604 -204.77165 -405.19687 -265.85828z" fill-rule="evenodd"/><path fill="#5b0f00" d="m172.71652 38.300526c153.24933 58.29134 250.75064 202.84253 403.99997 261.13385l-33.44879 51.75589c-153.24936 -58.29132 -250.75067 -202.84251 -404.0 -261.13385z" fill-rule="evenodd"/><path fill="#660000" d="m170.1286 42.562996c153.40683 58.385826 251.06561 203.0315 404.47247 261.41733l-33.448853 51.75592c-153.40683 -58.385834 -251.06561 -203.03151 -404.47244 -261.41733z" fill-rule="evenodd"/><path fill="#5b0f00" d="m227.26254 338.32825l79.1496 0l0 195.87402l-79.1496 0z" fill-rule="evenodd"/><path fill="#661708" d="m128.2566 338.3281l98.99213 0l0 195.874l-98.99213 0z" fill-rule="evenodd"/><path fill="#85200c" d="m0 338.32825l133.38583 0l0 195.87402l-133.38583 0z" fill-rule="evenodd"/><path fill="#d9d9d9" d="m185.57791 40.971123l0 0c11.393585 8.019001 10.956451 28.254318 -0.9763794 45.196854c-11.932831 16.942528 -30.842636 24.176476 -42.23622 16.157478l0 0c11.870895 -0.71949005 24.912277 -9.169304 33.944443 -21.993378c9.03215 -12.824081 12.592957 -27.946484 9.268158 -39.360954z" fill-rule="evenodd"/><path fill="#d9d9d9" d="m160.21849 100.50124l5.984253 4.4409485l-10.708664 14.330704l-5.984253 -4.440941z" fill-rule="evenodd"/><path fill="#999999" d="m190.25461 67.32322l-1.3228455 -23.685036l23.307083 4.2834625z" fill-rule="evenodd"/><path fill="#a61c00" d="m-4.225722E-5 340.71255l0 0c0 -21.482574 68.59562 -38.897644 153.2126 -38.897644l0 0c84.61699 0 153.21259 17.41507 153.21259 38.897644l0 0c0 21.482574 -68.5956 38.897644 -153.21259 38.897644l0 0c-84.61698 0 -153.2126 -17.41507 -153.2126 -38.897644z" fill-rule="evenodd"/><path fill="#5b0f00" d="m186.63792 338.336l0 0c-8.853943 -24.857178 0.31892395 -50.838745 20.48819 -58.031494c20.169266 -7.192749 43.697235 7.127075 52.551193 31.984253l0 0c-27.362167 -2.1868591 -53.227417 7.037201 -73.03938 26.047241z" fill-rule="evenodd"/><path fill="#0b5394" d="m12.440945 322.64566l0 0c0 -31.658508 63.025616 -57.322815 140.77165 -57.322815c77.74603 0 140.77165 25.664307 140.77165 57.322815l0 0c-79.48848 -29.896515 -202.05482 -29.896515 -281.5433 0z" fill-rule="evenodd"/><path fill="#666666" d="m189.1572 337.39185l0 0c-12.280731 17.881866 -58.116898 7.9334106 -102.37796 -22.220459c-44.261055 -30.15387 -70.18623 -69.09453 -57.90551 -86.97638l0 0c5.6001377 22.43425 31.336191 51.915924 65.84029 75.42264c34.504097 23.506714 71.420616 36.708588 94.443184 33.7742z" fill-rule="evenodd"/><path fill="#b7b7b7" d="m174.0992 86.72678l0 0c14.246338 15.081291 -6.6869965 59.013786 -46.755913 98.125984c-40.06891 39.112198 -84.10011 58.59311 -98.34645 43.51181l0 0c54.448505 -30.100601 113.308304 -87.55501 145.10237 -141.63779z" fill-rule="evenodd"/><path fill="#b7b7b7" d="m280.83035 157.9656l0 0c-18.612427 -9.149658 -54.28865 23.656937 -79.68504 73.275604c-25.396408 49.618652 -30.895905 97.259766 -12.283478 106.409454l0 0c12.532364 -60.6734 49.838776 -133.56142 91.96852 -179.68506z" fill-rule="evenodd"/><path fill="#b7b7b7" d="m174.42859 88.32259l102.078735 68.472435l-95.590546 137.88976l-102.078735 -68.47243z" fill-rule="evenodd"/><path fill="#b7b7b7" d="m89.14412 187.03229l119.81102 81.480316l-46.267715 67.52756l-119.81102 -81.480316z" fill-rule="evenodd"/><path fill="#b7b7b7" d="m189.1509 337.0042l0 0c-8.262527 12.019806 -50.74965 -2.6243591 -94.897644 -32.70865c-44.14799 -30.08429 -73.23891 -64.216415 -64.97638 -76.23622l0 0c8.413849 18.25357 35.89898 45.017563 70.31493 68.47002c34.415947 23.452484 69.42335 39.27356 89.55909 40.474854z" fill-rule="evenodd"/><path fill="#b7b7b7" d="m45.430786 259.3738l-16.047245 -30.26773l35.480312 -0.9763794z" fill-rule="evenodd"/><path fill="#b7b7b7" d="m154.01917 331.2151l33.653534 6.37796l-9.5590515 -34.188965z" fill-rule="evenodd"/><path fill="#b7b7b7" d="m73.89547 252.8033l76.472435 52.03151l-14.078735 20.53543l-76.47244 -52.031494z" fill-rule="evenodd"/><path fill="#a61c00" d="m204.60104 334.958l0 0c-0.01739502 6.923126 -18.997696 12.535431 -42.393692 12.535431c-23.395996 0 -42.348106 -5.6123047 -42.33071 -12.535431l0 0c9.99044 3.9456177 25.679192 6.2677 42.34646 6.2677c16.667267 0 32.367676 -2.3220825 42.377945 -6.2677z" fill-rule="evenodd"/><path fill="#000000" fill-opacity="0.0" d="m23.47769 391.60104c1.560049 9.478821 10.154856 16.572449 10.154856 26.239288c0 5.8665466 -6.7273045 8.644928 -8.884514 13.89212c-2.7447777 6.6763916 0.63517 14.915558 0.63517 22.380005c0 7.8239746 -4.73501 15.562561 -3.1732273 23.152496" fill-rule="evenodd"/><path stroke="#5b0f00" stroke-width="1.0" stroke-linejoin="round" stroke-linecap="butt" d="m23.47769 391.60104c1.560049 9.478821 10.154856 16.572449 10.154856 26.239288c0 5.8665466 -6.7273045 8.644928 -8.884514 13.89212c-2.7447777 6.6763916 0.63517 14.915558 0.63517 22.380005c0 7.8239746 -4.73501 15.562561 -3.1732273 23.152496" fill-rule="evenodd"/><path fill="#000000" fill-opacity="0.0" d="m50.026245 491.8609c2.7857513 3.1474915 7.555599 6.310669 6.979004 10.214111c-0.6324806 4.281769 -8.918549 5.4893494 -10.152229 9.676056c-2.5114975 8.523163 0.99150085 19.592438 -6.3464584 25.799835" fill-rule="evenodd"/><path stroke="#5b0f00" stroke-width="1.0" stroke-linejoin="round" stroke-linecap="butt" d="m50.026245 491.8609c2.7857513 3.1474915 7.555599 6.310669 6.979004 10.214111c-0.6324806 4.281769 -8.918549 5.4893494 -10.152229 9.676056c-2.5114975 8.523163 0.99150085 19.592438 -6.3464584 25.799835" fill-rule="evenodd"/><path fill="#000000" fill-opacity="0.0" d="m101.53018 433.48294c8.501663 12.748108 -3.421486 32.93686 5.0761185 45.687653" fill-rule="evenodd"/><path stroke="#5b0f00" stroke-width="1.0" stroke-linejoin="round" stroke-linecap="butt" d="m101.53018 433.48294c8.501663 12.748108 -3.421486 32.93686 5.0761185 45.687653" fill-rule="evenodd"/><path fill="#000000" fill-opacity="0.0" d="m185.80577 519.7807c2.9541779 -6.2719116 8.208298 -14.166534 6.346466 -21.549377c-2.953537 -11.7118225 -12.411163 -24.961273 -8.249344 -35.562042" fill-rule="evenodd"/><path stroke="#000000" stroke-width="1.0" stroke-linejoin="round" stroke-linecap="butt" d="m185.80577 519.7807c2.9541779 -6.2719116 8.208298 -14.166534 6.346466 -21.549377c-2.953537 -11.7118225 -12.411163 -24.961273 -8.249344 -35.562042" fill-rule="evenodd"/><path fill="#000000" fill-opacity="0.0" d="m289.39865 510.0299c-7.353424 3.5458374 2.5380554 9.979248 2.5380554 14.993774c0 3.1419678 -4.4409485 6.0375366 -4.4409485 9.179504" fill-rule="evenodd"/><path stroke="#000000" stroke-width="1.0" stroke-linejoin="round" stroke-linecap="butt" d="m289.39865 510.0299c-7.353424 3.5458374 2.5380554 9.979248 2.5380554 14.993774c0 3.1419678 -4.4409485 6.0375366 -4.4409485 9.179504" fill-rule="evenodd"/><path fill="#000000" fill-opacity="0.0" d="m257.20844 425.82376c7.5601807 5.473114 0.7654114 17.598389 -0.6057129 26.268097c-0.94192505 5.955902 4.840576 11.49408 4.840576 17.51059" fill-rule="evenodd"/><path stroke="#000000" stroke-width="1.0" stroke-linejoin="round" stroke-linecap="butt" d="m257.20844 425.82376c7.5601807 5.473114 0.7654114 17.598389 -0.6057129 26.268097c-0.94192505 5.955902 4.840576 11.49408 4.840576 17.51059" fill-rule="evenodd"/><path fill="#000000" fill-opacity="0.0" d="m78.20937 311.80353c-13.269608 -2.025879 -25.68608 7.849365 -38.70866 11.105011c-6.9652634 1.7413025 -20.384924 1.2513428 -19.829397 8.409424" fill-rule="evenodd"/><path stroke="#5b0f00" stroke-width="1.0" stroke-linejoin="round" stroke-linecap="butt" d="m78.20937 311.80353c-13.269608 -2.025879 -25.68608 7.849365 -38.70866 11.105011c-6.9652634 1.7413025 -20.384924 1.2513428 -19.829397 8.409424" fill-rule="evenodd"/><path fill="#000000" fill-opacity="0.0" d="m19.671917 341.15222c1.5169926 4.9270935 9.073528 4.9241943 13.800526 6.9816284c10.234917 4.454773 18.82188 14.910767 29.98425 14.910767" fill-rule="evenodd"/><path stroke="#5b0f00" stroke-width="1.0" stroke-linejoin="round" stroke-linecap="butt" d="m19.671917 341.15222c1.5169926 4.9270935 9.073528 4.9241943 13.800526 6.9816284c10.234917 4.454773 18.82188 14.910767 29.98425 14.910767" fill-rule="evenodd"/><path fill="#000000" fill-opacity="0.0" d="m65.35896 323.38583c-7.971527 1.1401367 -18.430592 1.7918701 -22.527561 8.724396c-3.0564423 5.1718445 3.0604706 12.996185 8.249344 16.02362" fill-rule="evenodd"/><path stroke="#5b0f00" stroke-width="1.0" stroke-linejoin="round" stroke-linecap="butt" d="m65.35896 323.38583c-7.971527 1.1401367 -18.430592 1.7918701 -22.527561 8.724396c-3.0564423 5.1718445 3.0604706 12.996185 8.249344 16.02362" fill-rule="evenodd"/><path fill="#000000" fill-opacity="0.0" d="m84.07874 360.50537c19.971664 -1.5245667 39.93873 3.8084106 59.9685 3.8084106" fill-rule="evenodd"/><path stroke="#5b0f00" stroke-width="1.0" stroke-linejoin="round" stroke-linecap="butt" d="m84.07874 360.50537c19.971664 -1.5245667 39.93873 3.8084106 59.9685 3.8084106" fill-rule="evenodd"/><path fill="#000000" fill-opacity="0.0" d="m75.6722 335.28348c-4.311096 2.742218 -5.787964 12.103729 -1.7454071 15.2283325c4.8538666 3.751709 12.2668 -0.31759644 18.401573 -0.31759644" fill-rule="evenodd"/><path stroke="#5b0f00" stroke-width="1.0" stroke-linejoin="round" stroke-linecap="butt" d="m75.6722 335.28348c-4.311096 2.742218 -5.787964 12.103729 -1.7454071 15.2283325c4.8538666 3.751709 12.2668 -0.31759644 18.401573 -0.31759644" fill-rule="evenodd"/><path fill="#000000" fill-opacity="0.0" d="m95.343834 327.03348c-4.5329285 -1.5109863 -9.512459 1.6113281 -14.2782135 1.2677002" fill-rule="evenodd"/><path stroke="#5b0f00" stroke-width="1.0" stroke-linejoin="round" stroke-linecap="butt" d="m95.343834 327.03348c-4.5329285 -1.5109863 -9.512459 1.6113281 -14.2782135 1.2677002" fill-rule="evenodd"/><path fill="#000000" fill-opacity="0.0" d="m160.54593 367.3281c19.30539 4.8313293 40.771393 3.762909 59.6483 -2.5380554" fill-rule="evenodd"/><path stroke="#5b0f00" stroke-width="1.0" stroke-linejoin="round" stroke-linecap="butt" d="m160.54593 367.3281c19.30539 4.8313293 40.771393 3.762909 59.6483 -2.5380554" fill-rule="evenodd"/><path fill="#000000" fill-opacity="0.0" d="m276.5118 356.22308c7.7157593 0 15.682739 -9.581177 15.388458 -17.29132c-0.21743774 -5.696991 -7.2895813 -8.7716675 -11.10498 -13.007874" fill-rule="evenodd"/><path stroke="#5b0f00" stroke-width="1.0" stroke-linejoin="round" stroke-linecap="butt" d="m276.5118 356.22308c7.7157593 0 15.682739 -9.581177 15.388458 -17.29132c-0.21743774 -5.696991 -7.2895813 -8.7716675 -11.10498 -13.007874" fill-rule="evenodd"/><path fill="#000000" fill-opacity="0.0" d="m223.36745 354.00262c6.683441 -10.50705 35.863785 -0.9102173 34.900284 -13.32547" fill-rule="evenodd"/><path stroke="#5b0f00" stroke-width="1.0" stroke-linejoin="round" stroke-linecap="butt" d="m223.36745 354.00262c6.683441 -10.50705 35.863785 -0.9102173 34.900284 -13.32547" fill-rule="evenodd"/><path fill="#000000" fill-opacity="0.0" d="m248.90814 329.41208c-4.52742 -10.868805 -23.217804 -5.6814575 -33.314972 -11.737549" fill-rule="evenodd"/><path stroke="#5b0f00" stroke-width="1.0" stroke-linejoin="round" stroke-linecap="butt" d="m248.90814 329.41208c-4.52742 -10.868805 -23.217804 -5.6814575 -33.314972 -11.737549" fill-rule="evenodd"/><path fill="#000000" fill-opacity="0.0" d="m188.78215 353.20996c11.013916 0.68341064 31.209427 -9.008087 26.97113 -19.196838" fill-rule="evenodd"/><path stroke="#5b0f00" stroke-width="1.0" stroke-linejoin="round" stroke-linecap="butt" d="m188.78215 353.20996c11.013916 0.68341064 31.209427 -9.008087 26.97113 -19.196838" fill-rule="evenodd"/><path fill="#000000" fill-opacity="0.0" d="m103.43307 339.08923c5.698105 10.587982 22.083748 11.740173 34.107613 11.740173" fill-rule="evenodd"/><path stroke="#5b0f00" stroke-width="1.0" stroke-linejoin="round" stroke-linecap="butt" d="m103.43307 339.08923c5.698105 10.587982 22.083748 11.740173 34.107613 11.740173" fill-rule="evenodd"/><path fill="#000000" fill-opacity="0.0" d="m197.0315 308.15485c4.4150543 0 8.765732 1.0917664 13.167984 1.4278259" fill-rule="evenodd"/><path stroke="#000000" stroke-width="1.0" stroke-linejoin="round" stroke-linecap="butt" d="m197.0315 308.15485c4.4150543 0 8.765732 1.0917664 13.167984 1.4278259" fill-rule="evenodd"/><path fill="#e69138" d="m148.53787 63.740158l0 0c10.341202 -15.968422 21.114578 -27.369297 24.062988 -25.46457l0 0c1.4158783 0.9146843 0.8010254 4.838127 -1.7093048 10.907219c-2.5103302 6.069092 -6.710495 13.786678 -11.676514 21.454987l0 0c-10.341202 15.968422 -21.114578 27.3693 -24.062988 25.46457l0 0c-1.4158936 -0.9146881 -0.8010254 -4.838127 1.7093048 -10.907219c2.510315 -6.069092 6.710495 -13.786682 11.676514 -21.454987z" fill-rule="evenodd"/><path fill="#5b0f00" d="m554.181 328.29922l0 0c9.958496 -17.316528 19.956299 -30.247406 22.330688 -28.881897l0 0c1.1401978 0.6557312 0.33398438 4.587982 -2.241333 10.931732c-2.5752563 6.34375 -6.708679 14.579346 -11.490967 22.89502l0 0c-9.958496 17.316528 -19.956299 30.247406 -22.330688 28.881897l0 0c-1.1402588 -0.6557312 -0.33398438 -4.587982 2.241272 -10.931732c2.5753174 -6.34375 6.70874 -14.579346 11.491028 -22.89502z" fill-rule="evenodd"/><path fill="#999999" d="m187.07535 40.528194l0 0c10.141159 2.6440125 16.084854 13.473785 13.275589 24.188976c-2.8092651 10.715195 -13.307648 17.258186 -23.448822 14.614174l0 0c7.800186 -11.31282 11.422928 -25.13084 10.173233 -38.80315z" fill-rule="evenodd"/><path fill="#b7b7b7" d="m195.61761 57.845875l0 0c5.351639 -8.049839 16.282455 -10.339325 24.414673 -5.1137085l76.91284 49.422832c3.905243 2.5094223 6.629608 6.451706 7.5737915 10.959579c0.94418335 4.5078735 0.030853271 9.212082 -2.539093 13.077751l-22.037354 33.14817c-5.3516235 8.049835 -16.28244 10.339325 -24.414658 5.1137085l-76.91286 -49.42283c-8.132217 -5.2256165 -10.386322 -15.987495 -5.034683 -24.037338z" fill-rule="evenodd"/><path fill="#b7b7b7" d="m195.50313 55.684635l0 0c5.903534 -8.598606 17.732513 -10.891045 26.420792 -5.1203003l74.89917 49.74796c4.1722717 2.7712097 7.047455 7.0692368 7.993042 11.948555c0.9456177 4.879326 -0.11581421 9.940262 -2.9508057 14.069458l-24.983643 36.38925c-5.903534 8.598602 -17.732513 10.891037 -26.420792 5.1203003l-74.899185 -49.747963c-8.688263 -5.7707443 -10.945755 -17.419403 -5.0422363 -26.018013z" fill-rule="evenodd"/><path fill="#999999" d="m196.67453 39.08415l0.3493805 4.8267555l-2.5570068 0.51971436l-1.6663818 -4.5590706z" fill-rule="evenodd"/><path fill="#6d9eeb" d="m442.21783 108.59318l11.265869 -2.419197l2.4191895 -11.265846l2.4191895 11.265846l11.265839 2.419197l-11.265839 2.419197l-2.4191895 11.265839l-2.4191895 -11.265839z" fill-rule="evenodd"/><path fill="#0b5394" d="m494.2257 8.803149l7.2469788 -1.5561914l1.5561829 -7.246958l1.5561829 7.246958l7.2469788 1.5561914l-7.2469788 1.5561924l-1.5561829 7.246957l-1.5561829 -7.246957z" fill-rule="evenodd"/><path fill="#3c78d8" d="m551.48816 67.18898l6.5858154 -1.4142151l1.4141846 -6.5857887l1.4142456 6.5857887l6.5857544 1.4142151l-6.5857544 1.4142075l-1.4142456 6.5857925l-1.4141846 -6.5857925z" fill-rule="evenodd"/><path fill="#0b5394" d="m536.1496 148.47244l6.5858154 -1.4142151l1.4141846 -6.585785l1.4142456 6.585785l6.5857544 1.4142151l-6.5857544 1.4142151l-1.4142456 6.585785l-1.4141846 -6.585785z" fill-rule="evenodd"/><path fill="#3d85c6" d="m396.73752 16.95013l8.737854 -1.876338l1.8763428 -8.737835l1.8763428 8.737835l8.7378235 1.876338l-8.7378235 1.876339l-1.8763428 8.737835l-1.8763428 -8.737835z" fill-rule="evenodd"/><path fill="#999999" d="m181.01501 41.54963l0 0c4.0877686 -2.243927 9.481506 -0.21334457 12.047241 4.5354347c2.5657349 4.7487793 1.3318634 10.417488 -2.7559052 12.661419l0 0c0.94155884 -3.3430634 0.46348572 -7.139576 -1.3131104 -10.427788c-1.7765961 -3.2882156 -4.6812897 -5.752674 -7.9782257 -6.769066z" fill-rule="evenodd"/><path fill="#999999" d="m186.02362 44.3646l0 0c2.4526672 -0.10437012 4.546692 2.849846 4.6771545 6.598423c0.13046265 3.748577 -1.7520599 6.8720093 -4.204727 6.9763794l0 0c1.5508728 -4.2261047 1.367569 -9.492992 -0.47242737 -13.574802z" fill-rule="evenodd"/><path fill="#999999" d="m185.97652 41.897926l0 0c2.4526672 -0.12176514 4.567856 2.8183517 4.724411 6.566929c0.15655518 3.748577 -1.7048187 6.886112 -4.157486 7.0078735l0 0c0.5541382 -4.4909782 0.35925293 -9.157314 -0.56692505 -13.574802z" fill-rule="evenodd"/><path fill="#000000" fill-opacity="0.0" d="m128.5888 338.4407l0 0c9.141693 2.010498 21.307556 3.2086792 33.035553 3.2535095c11.727997 0.04486084 21.733963 -1.068512 27.170502 -3.0232544l-34.918533 -5.2686768z" fill-rule="evenodd"/><path fill="#000000" fill-opacity="0.0" d="m128.5888 338.4407l0 0c9.141693 2.010498 21.307556 3.2086792 33.035553 3.2535095c11.727997 0.04486084 21.733963 -1.068512 27.170502 -3.0232544" fill-rule="evenodd"/><path stroke="#85200c" stroke-width="1.0" stroke-linejoin="round" stroke-linecap="butt" d="m128.5888 338.4407l0 0c9.141693 2.010498 21.307556 3.2086792 33.035553 3.2535095c11.727997 0.04486084 21.733963 -1.068512 27.170502 -3.0232544" fill-rule="evenodd"/></g></svg>