<svg version="1.1" viewBox="0.0 0.0 171.3727034120735 157.68503937007873" fill="none" stroke="none" stroke-linecap="square" stroke-miterlimit="10" xmlns:xlink="http://www.w3.org/1999/xlink" xmlns="http://www.w3.org/2000/svg"><clipPath id="p.0"><path d="m0 0l171.3727 0l0 157.68504l-171.3727 0l0 -157.68504z" clip-rule="nonzero"/></clipPath><g clip-path="url(#p.0)"><path fill="#000000" fill-opacity="0.0" d="m0 0l171.3727 0l0 157.68504l-171.3727 0z" fill-rule="evenodd"/><path fill="#6d9eeb" d="m45.79134 109.19948l11.265842 -2.419197l2.419197 -11.265846l2.4191933 11.265846l11.265842 2.419197l-11.265842 2.4191895l-2.4191933 11.265846l-2.419197 -11.265846z" fill-rule="evenodd"/><path fill="#0b5394" d="m97.79921 9.409449l7.2469635 -1.5561914l1.5561905 -7.246958l1.5561905 7.246958l7.246956 1.5561914l-7.246956 1.5561914l-1.5561905 7.2469587l-1.5561905 -7.2469587z" fill-rule="evenodd"/><path fill="#3c78d8" d="m155.06168 67.79527l6.585785 -1.4142075l1.4142151 -6.5857887l1.4142151 6.5857887l6.585785 1.4142075l-6.585785 1.4142151l-1.4142151 6.585785l-1.4142151 -6.585785z" fill-rule="evenodd"/><path fill="#0b5394" d="m139.7231 149.07874l6.585785 -1.4142151l1.4142151 -6.585785l1.4142151 6.585785l6.585785 1.4142151l-6.585785 1.4142151l-1.4142151 6.585785l-1.4142151 -6.585785z" fill-rule="evenodd"/><path fill="#3d85c6" d="m0.31102362 17.55643l8.737835 -1.876339l1.876338 -8.737835l1.876339 8.737835l8.737834 1.876339l-8.737834 1.876339l-1.876339 8.737833l-1.876338 -8.737833z" fill-rule="evenodd"/></g></svg>