<svg version="1.1" viewBox="0.0 0.0 1531.3727034120734 143.38320209973753" fill="none" stroke="none" stroke-linecap="square" stroke-miterlimit="10" xmlns:xlink="http://www.w3.org/1999/xlink" xmlns="http://www.w3.org/2000/svg"><clipPath id="p.0"><path d="m0 0l1531.3727 0l0 143.38321l-1531.3727 0l0 -143.38321z" clip-rule="nonzero"/></clipPath><g clip-path="url(#p.0)"><path fill="#000000" fill-opacity="0.0" d="m0 0l1531.3727 0l0 143.38321l-1531.3727 0z" fill-rule="evenodd"/><path fill="#cccccc" d="m-5.2493436E-7 69.13386l1531.3701 0l0 9.732285l-1531.3701 0z" fill-rule="evenodd"/><path fill="#666666" d="m281.77692 63.401573l157.35431 0l0 21.196854l-157.35431 0z" fill-rule="evenodd"/><path fill="#666666" d="m94.14698 63.401573l39.338585 0l0 21.196854l-39.338585 0z" fill-rule="evenodd"/><path fill="#000000" fill-opacity="0.0" d="m113.81628 0.37795275l0 63.02362" fill-rule="evenodd"/><path stroke="#666666" stroke-width="2.0" stroke-linejoin="round" stroke-linecap="butt" stroke-dasharray="8.0,6.0" d="m113.81628 0.37795275l0 51.02362" fill-rule="evenodd"/><path fill="#666666" stroke="#666666" stroke-width="2.0" stroke-linecap="butt" d="m110.51281 51.401577l3.3034668 9.076195l3.3034592 -9.076195z" fill-rule="evenodd"/><path fill="#000000" fill-opacity="0.0" d="m113.81628 4.0813646l69.88976 0l0 27.370079l-69.88976 0z" fill-rule="evenodd"/><path fill="#000000" d="m122.66003 13.135779q-0.34375 0 -0.578125 -0.234375q-0.234375 -0.234375 -0.234375 -0.59375q0 -0.34375 0.234375 -0.578125q0.234375 -0.234375 0.578125 -0.234375q0.328125 0 0.5625 0.234375q0.25 0.234375 0.25 0.578125q0 0.359375 -0.25 0.59375q-0.234375 0.234375 -0.5625 0.234375zm0.5625 1.65625l0 8.734376l-1.125 0l0 -8.734376l1.125 0zm12.945244 -0.15625q1.53125 0 2.5 0.96875q0.96875 0.96875095 0.96875 2.796876l0 5.125l-1.109375 0l0 -4.984375q0 -1.4375 -0.6875 -2.1875q-0.6875 -0.75000095 -1.875 -0.75000095q-1.234375 0 -1.96875 0.82812595q-0.734375 0.8125 -0.734375 2.359375l0 4.734375l-1.09375 0l0 -4.984375q0 -1.4375 -0.703125 -2.1875q-0.6875 -0.75000095 -1.875 -0.75000095q-1.234375 0 -1.9687424 0.82812595q-0.734375 0.8125 -0.734375 2.359375l0 4.734375l-1.125 0l0 -8.734376l1.125 0l0 1.500001q0.40625 -0.81250095 1.1718674 -1.234376q0.78125 -0.421875 1.71875 -0.421875q1.140625 0 1.984375 0.546875q0.859375 0.53125 1.25 1.593751q0.34375 -1.046876 1.203125 -1.593751q0.859375 -0.546875 1.953125 -0.546875zm7.0551605 2.078126q0.40625 -0.89062595 1.3125 -1.468751q0.90625 -0.578125 2.15625 -0.578125q1.1875 0 2.125 0.546875q0.953125 0.546875 1.484375 1.562501q0.546875 1.015625 0.546875 2.359375q0 1.34375 -0.546875 2.375q-0.53125 1.03125 -1.484375 1.59375q-0.9375 0.546875 -2.125 0.546875q-1.234375 0 -2.15625 -0.578125q-0.90625 -0.59375 -1.3125 -1.46875l0 6.046875l-1.109375 0l0 -12.859376l1.109375 0l0 1.921876zm6.484375 2.421875q0 -1.078125 -0.421875 -1.875q-0.421875 -0.796875 -1.15625 -1.203125q-0.734375 -0.42187595 -1.671875 -0.42187595q-0.890625 0 -1.640625 0.43750095q-0.734375 0.421875 -1.171875 1.234375q-0.421875 0.796875 -0.421875 1.84375q0 1.0625 0.421875 1.859375q0.4375 0.796875 1.171875 1.234375q0.75 0.4375 1.640625 0.4375q0.9375 0 1.671875 -0.421875q0.734375 -0.4375 1.15625 -1.234375q0.421875 -0.8125 0.421875 -1.890625zm7.0343933 4.515625q-1.234375 0 -2.21875 -0.546875q-0.984375 -0.546875 -1.5625 -1.5625q-0.5625 -1.03125 -0.5625 -2.390625q0 -1.359375 0.578125 -2.375q0.578125 -1.015626 1.5625 -1.562501q1.0 -0.546875 2.234375 -0.546875q1.234375 0 2.234375 0.546875q1.0 0.546875 1.5625 1.562501q0.5625 1.015625 0.5625 2.375q0 1.34375 -0.578125 2.375q-0.5625 1.03125 -1.578125 1.578125q-1.0 0.546875 -2.234375 0.546875zm0 -0.96875q0.859375 0 1.59375 -0.390625q0.734375 -0.390625 1.1875 -1.1875q0.46875 -0.796875 0.46875 -1.953125q0 -1.140625 -0.453125 -1.9375q-0.453125 -0.796875 -1.1875 -1.1875q-0.734375 -0.39062595 -1.59375 -0.39062595q-0.875 0 -1.609375 0.39062595q-0.734375 0.390625 -1.171875 1.1875q-0.4375 0.796875 -0.4375 1.9375q0 1.15625 0.4375 1.953125q0.4375 0.796875 1.15625 1.1875q0.734375 0.390625 1.609375 0.390625zm7.5688934 -6.34375q0.359375 -0.81250095 1.109375 -1.250001q0.765625 -0.453125 1.875 -0.453125l0 1.15625l-0.296875 0q-1.21875 0 -1.953125 0.65625095q-0.734375 0.65625 -0.734375 2.203125l0 4.875l-1.125 0l0 -8.734376l1.125 0l0 1.546876zm6.1201324 -0.60937595l0 5.421876q0 0.8125 0.296875 1.125q0.3125 0.296875 1.078125 0.296875l1.03125 0l0 0.953125l-1.203125 0q-1.1875 0 -1.765625 -0.546875q-0.578125 -0.5625 -0.578125 -1.828125l0 -5.421876l-1.203125 0l0 -0.9375l1.203125 0l0 -2.1875l1.140625 0l0 2.1875l2.40625 0l0 0.9375l-2.40625 0z" fill-rule="nonzero"/><path fill="#666666" d="m281.77692 63.401573l39.338562 0l0 21.196854l-39.338562 0z" fill-rule="evenodd"/><path fill="#666666" d="m321.11548 63.401573l39.338593 0l0 21.196854l-39.338593 0z" fill-rule="evenodd"/><path fill="#666666" d="m360.45407 63.401573l39.338593 0l0 21.196854l-39.338593 0z" fill-rule="evenodd"/><path fill="#000000" fill-opacity="0.0" d="m301.4462 14.6692915l39.338593 0l0 27.370079l-39.338593 0z" fill-rule="evenodd"/><path fill="#000000" d="m309.21182 29.73933q0 -1.359375 0.546875 -2.375q0.546875 -1.015625 1.5 -1.5625q0.96875 -0.546875 2.203125 -0.546875q1.609375 0 2.65625 0.796875q1.046875 0.796875 1.359375 2.171875l-1.203125 0q-0.234375 -0.9375 -0.984375 -1.46875q-0.734375 -0.546875 -1.828125 -0.546875q-0.890625 0 -1.59375 0.40625q-0.703125 0.390625 -1.109375 1.1875q-0.40625 0.796875 -0.40625 1.9375q0 1.15625 0.40625 1.96875q0.40625 0.796875 1.109375 1.203125q0.703125 0.390625 1.59375 0.390625q1.09375 0 1.828125 -0.53125q0.75 -0.546875 0.984375 -1.5l1.203125 0q-0.3125 1.34375 -1.375 2.15625q-1.046875 0.8125 -2.640625 0.8125q-1.234375 0 -2.203125 -0.546875q-0.953125 -0.546875 -1.5 -1.5625q-0.546875 -1.03125 -0.546875 -2.390625zm9.808014 -0.015625q0 -1.34375 0.53125 -2.359375q0.546875 -1.015625 1.5 -1.5625q0.953125 -0.546875 2.140625 -0.546875q1.25 0 2.15625 0.578125q0.90625 0.5625 1.3125 1.46875l0 -1.921875l1.109375 0l0 8.734375l-1.109375 0l0 -1.9375q-0.421875 0.890625 -1.328125 1.484375q-0.90625 0.578125 -2.15625 0.578125q-1.171875 0 -2.125 -0.546875q-0.953125 -0.5625 -1.5 -1.59375q-0.53125 -1.03125 -0.53125 -2.375zm7.640625 0.015625q0 -1.046875 -0.4375 -1.84375q-0.4375 -0.8125 -1.1875 -1.234375q-0.734375 -0.4375 -1.625 -0.4375q-0.9375 0 -1.671875 0.421875q-0.734375 0.40625 -1.15625 1.203125q-0.421875 0.796875 -0.421875 1.875q0 1.078125 0.421875 1.890625q0.421875 0.796875 1.15625 1.234375q0.734375 0.421875 1.671875 0.421875q0.890625 0 1.625 -0.4375q0.75 -0.4375 1.1875 -1.234375q0.4375 -0.796875 0.4375 -1.859375zm4.8000183 -7.46875l0 11.84375l-1.125 0l0 -11.84375l1.125 0zm3.6640015 0l0 11.84375l-1.125 0l0 -11.84375l1.125 0z" fill-rule="nonzero"/><path fill="#000000" fill-opacity="0.0" d="m301.4462 0l0 63.43307" fill-rule="evenodd"/><path stroke="#666666" stroke-width="2.0" stroke-linejoin="round" stroke-linecap="butt" d="m301.4462 0l0 51.43307" fill-rule="evenodd"/><path fill="#666666" stroke="#666666" stroke-width="2.0" stroke-linecap="butt" d="m298.14273 51.43307l3.3034668 9.076195l3.3034668 -9.076195z" fill-rule="evenodd"/><path fill="#000000" fill-opacity="0.0" d="m340.7848 63.401573c0 -12.5 9.834625 -25.007874 19.669281 -25.0c9.834656 0.00787735 19.669281 12.531498 19.669281 25.062992" fill-rule="evenodd"/><path stroke="#666666" stroke-width="2.0" stroke-linejoin="round" stroke-linecap="butt" d="m340.7848 63.401573c0 -12.5 9.834625 -25.007874 19.669281 -25.0c4.917328 0.0039367676 9.834656 3.136814 13.522644 7.83514c0.9219971 1.1745796 1.7671204 2.4470024 2.5162659 3.7928352c0.18728638 0.3364601 0.3685608 0.6775093 0.5435486 1.0227585c0.0874939 0.17263031 0.17340088 0.34630585 0.25769043 0.52098846l0.09713745 0.20640182" fill-rule="evenodd"/><path fill="#666666" stroke="#666666" stroke-width="2.0" stroke-linecap="butt" d="m374.17465 52.531784l5.2830505 8.085758l1.1503601 -9.5899315z" fill-rule="evenodd"/><path fill="#000000" fill-opacity="0.0" d="m380.06036 28.64567l78.80316 0l0 27.370077l-78.80316 0z" fill-rule="evenodd"/><path fill="#000000" d="m387.451 46.99696l2.9375 -7.640625l1.1875 0l-3.5 8.734375l-1.265625 0l-3.515625 -8.734375l1.203125 0l2.953125 7.640625zm5.127014 -3.296875q0 -1.34375 0.53125 -2.359375q0.546875 -1.015625 1.5 -1.5625q0.953125 -0.546875 2.140625 -0.546875q1.25 0 2.15625 0.578125q0.90625 0.5625 1.3125 1.46875l0 -1.921875l1.109375 0l0 8.734375l-1.109375 0l0 -1.9375q-0.421875 0.890625 -1.328125 1.484375q-0.90625 0.578125 -2.15625 0.578125q-1.171875 0 -2.125 -0.546875q-0.953125 -0.5625 -1.5 -1.59375q-0.53125 -1.03125 -0.53125 -2.375zm7.640625 0.015625q0 -1.046875 -0.4375 -1.84375q-0.4375 -0.8125 -1.1875 -1.234375q-0.734375 -0.4375 -1.625 -0.4375q-0.9375 0 -1.671875 0.421875q-0.734375 0.40625 -1.15625 1.203125q-0.421875 0.796875 -0.421875 1.875q0 1.078125 0.421875 1.890625q0.421875 0.796875 1.15625 1.234375q0.734375 0.421875 1.671875 0.421875q0.890625 0 1.625 -0.4375q0.75 -0.4375 1.1875 -1.234375q0.4375 -0.796875 0.4375 -1.859375zm4.8000183 -7.46875l0 11.84375l-1.125 0l0 -11.84375l1.125 0zm3.1015015 1.453125q-0.34375 0 -0.578125 -0.234375q-0.234375 -0.234375 -0.234375 -0.59375q0 -0.34375 0.234375 -0.578125q0.234375 -0.234375 0.578125 -0.234375q0.328125 0 0.5625 0.234375q0.25 0.234375 0.25 0.578125q0 0.359375 -0.25 0.59375q-0.234375 0.234375 -0.5625 0.234375zm0.5625 1.65625l0 8.734375l-1.125 0l0 -8.734375l1.125 0zm2.0233765 4.34375q0 -1.34375 0.546875 -2.359375q0.546875 -1.015625 1.5 -1.5625q0.953125 -0.546875 2.140625 -0.546875q1.15625 0 2.078125 0.5625q0.9375 0.546875 1.375 1.453125l0 -5.0l1.109375 0l0 11.84375l-1.109375 0l0 -1.953125q-0.40625 0.90625 -1.328125 1.5q-0.90625 0.578125 -2.140625 0.578125q-1.1875 0 -2.140625 -0.546875q-0.953125 -0.5625 -1.5 -1.59375q-0.53125 -1.03125 -0.53125 -2.375zm7.640625 0.015625q0 -1.046875 -0.4375 -1.84375q-0.4375 -0.8125 -1.1875 -1.234375q-0.734375 -0.4375 -1.625 -0.4375q-0.9375 0 -1.671875 0.421875q-0.734375 0.40625 -1.15625 1.203125q-0.421875 0.796875 -0.421875 1.875q0 1.078125 0.421875 1.890625q0.421875 0.796875 1.15625 1.234375q0.734375 0.421875 1.671875 0.421875q0.890625 0 1.625 -0.4375q0.75 -0.4375 1.1875 -1.234375q0.4375 -0.796875 0.4375 -1.859375zm3.1593933 -0.015625q0 -1.34375 0.53125 -2.359375q0.546875 -1.015625 1.5 -1.5625q0.953125 -0.546875 2.140625 -0.546875q1.25 0 2.15625 0.578125q0.90625 0.5625 1.3125 1.46875l0 -1.921875l1.109375 0l0 8.734375l-1.109375 0l0 -1.9375q-0.421875 0.890625 -1.328125 1.484375q-0.90625 0.578125 -2.15625 0.578125q-1.171875 0 -2.125 -0.546875q-0.953125 -0.5625 -1.5 -1.59375q-0.53125 -1.03125 -0.53125 -2.375zm7.640625 0.015625q0 -1.046875 -0.4375 -1.84375q-0.4375 -0.8125 -1.1875 -1.234375q-0.734375 -0.4375 -1.625 -0.4375q-0.9375 0 -1.671875 0.421875q-0.734375 0.40625 -1.15625 1.203125q-0.421875 0.796875 -0.421875 1.875q0 1.078125 0.421875 1.890625q0.421875 0.796875 1.15625 1.234375q0.734375 0.421875 1.671875 0.421875q0.890625 0 1.625 -0.4375q0.75 -0.4375 1.1875 -1.234375q0.4375 -0.796875 0.4375 -1.859375zm5.1281433 -3.421875l0 5.421875q0 0.8125 0.296875 1.125q0.3125 0.296875 1.078125 0.296875l1.03125 0l0 0.953125l-1.203125 0q-1.1875 0 -1.765625 -0.546875q-0.578125 -0.5625 -0.578125 -1.828125l0 -5.421875l-1.203125 0l0 -0.9375l1.203125 0l0 -2.1875l1.140625 0l0 2.1875l2.40625 0l0 0.9375l-2.40625 0zm12.149139 2.984375q0 0.578125 -0.03125 0.875l-7.25 0q0.046875 1.0 0.46875 1.703125q0.4375 0.703125 1.140625 1.0625q0.703125 0.359375 1.546875 0.359375q1.078125 0 1.8125 -0.53125q0.75 -0.53125 1.0 -1.421875l1.1875 0q-0.328125 1.28125 -1.375 2.09375q-1.046875 0.796875 -2.625 0.796875q-1.234375 0 -2.21875 -0.546875q-0.96875 -0.546875 -1.53125 -1.5625q-0.546875 -1.03125 -0.546875 -2.390625q0 -1.359375 0.546875 -2.375q0.546875 -1.03125 1.515625 -1.5625q0.984375 -0.546875 2.234375 -0.546875q1.234375 0 2.171875 0.546875q0.9375 0.53125 1.4375 1.453125q0.515625 0.921875 0.515625 2.046875zm-1.140625 -0.03125q0.015625 -0.984375 -0.390625 -1.671875q-0.40625 -0.6875 -1.109375 -1.03125q-0.703125 -0.359375 -1.53125 -0.359375q-1.25 0 -2.140625 0.8125q-0.875 0.796875 -0.96875 2.25l6.140625 0z" fill-rule="nonzero"/><path fill="#000000" fill-opacity="0.0" d="m419.46194 84.59843c0 14.763779 -12.968506 22.145668 -25.937012 29.527557c-12.968506 7.3818893 -25.937012 14.763786 -25.937012 29.527565" fill-rule="evenodd"/><path stroke="#666666" stroke-width="2.0" stroke-linejoin="round" stroke-linecap="butt" d="m419.46194 84.59843c0 14.763779 -12.968506 22.145668 -25.937012 29.527557c-6.484253 3.6909485 -12.968506 7.3818893 -17.831696 11.995567c-1.2157898 1.1534271 -2.3302917 2.3645172 -3.3181152 3.6476898c-0.493927 0.6415863 -0.95614624 1.3012085 -1.383606 1.9806519l-0.20635986 0.33740234" fill-rule="evenodd"/><path fill="#666666" stroke="#666666" stroke-width="2.0" stroke-linecap="butt" d="m367.60107 131.20715l0.7658386 9.628265l5.6022644 -7.8679657z" fill-rule="evenodd"/><path fill="#000000" fill-opacity="0.0" d="m403.39633 100.326775l62.015747 0l0 27.370079l-62.015747 0z" fill-rule="evenodd"/><path fill="#000000" d="m412.80258 112.58431q0.359375 -0.8125 1.109375 -1.25q0.765625 -0.453125 1.875 -0.453125l0 1.15625l-0.296875 0q-1.21875 0 -1.953125 0.65625q-0.734375 0.65625 -0.734375 2.203125l0 4.875l-1.125 0l0 -8.734375l1.125 0l0 1.546875zm12.229492 -1.546875l0 8.734375l-1.109375 0l0 -1.53125q-0.390625 0.8125 -1.1875 1.25q-0.796875 0.421875 -1.796875 0.421875q-1.5625 0 -2.5625 -0.96875q-0.984375 -0.96875 -0.984375 -2.796875l0 -5.109375l1.09375 0l0 4.96875q0 1.421875 0.71875 2.1875q0.71875 0.75 1.9375 0.75q1.265625 0 2.015625 -0.796875q0.765625 -0.8125 0.765625 -2.359375l0 -4.75l1.109375 0zm6.6592712 -0.15625q1.5625 0 2.546875 0.96875q1.0 0.96875 1.0 2.796875l0 5.125l-1.09375 0l0 -4.984375q0 -1.4375 -0.71875 -2.1875q-0.703125 -0.75 -1.9375 -0.75q-1.265625 0 -2.015625 0.8125q-0.75 0.796875 -0.75 2.34375l0 4.765625l-1.125 0l0 -8.734375l1.125 0l0 1.484375q0.40625 -0.796875 1.1875 -1.21875q0.796875 -0.421875 1.78125 -0.421875z" fill-rule="nonzero"/><path fill="#666666" d="m399.79266 63.401573l39.338562 0l0 21.196854l-39.338562 0z" fill-rule="evenodd"/></g></svg>