<svg version="1.1" viewBox="0.0 0.0 239.88188976377953 201.71128608923885" fill="none" stroke="none" stroke-linecap="square" stroke-miterlimit="10" xmlns:xlink="http://www.w3.org/1999/xlink" xmlns="http://www.w3.org/2000/svg"><clipPath id="p.0"><path d="m0 0l239.8819 0l0 201.71129l-239.8819 0l0 -201.71129z" clip-rule="nonzero"/></clipPath><g clip-path="url(#p.0)"><path fill="#000000" fill-opacity="0.0" d="m0 0l239.8819 0l0 201.71129l-239.8819 0z" fill-rule="evenodd"/><path fill="#d9d9d9" d="m115.13123 -0.001312336l9.826775 0l0 201.82677l-9.826775 0z" fill-rule="evenodd"/><path fill="#000000" fill-opacity="0.0" d="m0.34251967 109.93044l112.755905 0" fill-rule="evenodd"/><path stroke="#666666" stroke-width="2.0" stroke-linejoin="round" stroke-linecap="butt" d="m0.34251967 109.93044l100.755905 0" fill-rule="evenodd"/><path fill="#666666" stroke="#666666" stroke-width="2.0" stroke-linecap="butt" d="m101.09843 113.23391l9.076195 -3.3034668l-9.076195 -3.3034592z" fill-rule="evenodd"/><path fill="#000000" fill-opacity="0.0" d="m129.0971 165.56769c37.535538 0 61.22461 -26.669296 75.07106 -53.338585c13.846466 -26.669296 17.850296 -53.338585 35.700592 -53.338585" fill-rule="evenodd"/><path stroke="#666666" stroke-width="2.0" stroke-linejoin="round" stroke-linecap="butt" d="m129.0971 165.56769c37.535538 0 61.224594 -26.669296 75.07106 -53.338585c6.923218 -13.3346405 11.385803 -26.669296 16.348846 -36.67028c2.4815521 -5.0004883 5.088196 -9.167564 8.190109 -12.084522l0.05192566 -0.047927856" fill-rule="evenodd"/><path fill="#666666" stroke="#666666" stroke-width="2.0" stroke-linecap="butt" d="m230.0077 66.48475l7.154175 -6.489071l-9.6515045 0.37230682z" fill-rule="evenodd"/><path fill="#000000" fill-opacity="0.0" d="m0.34251967 56.156166l110.89764 0" fill-rule="evenodd"/><path stroke="#666666" stroke-width="2.0" stroke-linejoin="round" stroke-linecap="butt" stroke-dasharray="8.0,6.0" d="m0.34251967 56.156166l98.89764 0" fill-rule="evenodd"/><path fill="#666666" stroke="#666666" stroke-width="2.0" stroke-linecap="butt" d="m99.24016 59.459633l9.076195 -3.3034668l-9.076195 -3.303463z" fill-rule="evenodd"/><path fill="#666666" d="m111.24016 42.47113l17.606293 0l0 27.370079l-17.606293 0z" fill-rule="evenodd"/><path fill="#666666" d="m111.24147 98.767715l17.606293 0l0 78.96063l-17.606293 0z" fill-rule="evenodd"/><path fill="#666666" d="m111.24147 110.04855l17.606293 0l0 24.346466l-17.606293 0z" fill-rule="evenodd"/><path fill="#000000" fill-opacity="0.0" d="m128.84776 122.22179c12.5 0 24.992126 6.0236206 25.0 12.047241c0.007873535 6.0236206 -12.468491 12.047241 -24.936996 12.047241" fill-rule="evenodd"/><path stroke="#666666" stroke-width="2.0" stroke-linejoin="round" stroke-linecap="butt" d="m128.84776 122.22179c12.5 0 24.992126 6.0236206 25.0 12.047241c0.0039367676 3.0118103 -3.1131897 6.0236206 -7.789856 8.282486c-1.1691742 0.5647125 -2.4358063 1.082367 -3.7755127 1.5411835c-0.33494568 0.114730835 -0.6744385 0.22575378 -1.0181122 0.33291626l-0.4809723 0.14639282" fill-rule="evenodd"/><path fill="#666666" stroke="#666666" stroke-width="2.0" stroke-linecap="butt" d="m140.30313 141.30362l-8.499619 4.5876617l9.459976 1.9490967z" fill-rule="evenodd"/><path fill="#666666" d="m111.24147 134.14511l17.606293 0l0 24.34645l-17.606293 0z" fill-rule="evenodd"/><path fill="#666666" d="m111.490814 153.39445l17.606293 0l0 24.34645l-17.606293 0z" fill-rule="evenodd"/><path fill="#000000" fill-opacity="0.0" d="m0.335958 26.282152l110.99213 0l0 27.370077l-110.99213 0z" fill-rule="evenodd"/><path fill="#000000" d="m9.1797085 35.336567q-0.34375 0 -0.578125 -0.234375q-0.234375 -0.234375 -0.234375 -0.59375q0 -0.34375 0.234375 -0.578125q0.234375 -0.234375 0.578125 -0.234375q0.328125 0 0.5625 0.234375q0.25 0.234375 0.25 0.578125q0 0.359375 -0.25 0.59375q-0.234375 0.234375 -0.5625 0.234375zm0.5625 1.65625l0 8.734375l-1.125 0l0 -8.734375l1.125 0zm12.945251 -0.15625q1.53125 0 2.5 0.96875q0.96875 0.96875 0.96875 2.796875l0 5.125l-1.109375 0l0 -4.984375q0 -1.4375 -0.6875 -2.1875q-0.6875 -0.75 -1.875 -0.75q-1.234375 0 -1.96875 0.828125q-0.734375 0.8125 -0.734375 2.359375l0 4.734375l-1.09375 0l0 -4.984375q0 -1.4375 -0.703125 -2.1875q-0.6875 -0.75 -1.875 -0.75q-1.234375 0 -1.96875 0.828125q-0.734375 0.8125 -0.734375 2.359375l0 4.734375l-1.125 0l0 -8.734375l1.125 0l0 1.5q0.40625 -0.8125 1.171875 -1.234375q0.78125 -0.421875 1.71875 -0.421875q1.140625 0 1.984375 0.546875q0.859375 0.53125 1.25 1.59375q0.34375 -1.046875 1.203125 -1.59375q0.859375 -0.546875 1.953125 -0.546875zm7.0551605 2.078125q0.40625 -0.890625 1.3125 -1.46875q0.90625 -0.578125 2.156248 -0.578125q1.1875 0 2.125 0.546875q0.953125 0.546875 1.484375 1.5625q0.546875 1.015625 0.546875 2.359375q0 1.34375 -0.546875 2.375q-0.53125 1.03125 -1.484375 1.59375q-0.9375 0.546875 -2.125 0.546875q-1.2343731 0 -2.156248 -0.578125q-0.90625 -0.59375 -1.3125 -1.46875l0 6.046875l-1.109375 0l0 -12.859375l1.109375 0l0 1.921875zm6.484373 2.421875q0 -1.078125 -0.421875 -1.875q-0.421875 -0.796875 -1.15625 -1.203125q-0.734375 -0.421875 -1.671875 -0.421875q-0.890625 0 -1.6406231 0.4375q-0.734375 0.421875 -1.171875 1.234375q-0.421875 0.796875 -0.421875 1.84375q0 1.0625 0.421875 1.859375q0.4375 0.796875 1.171875 1.234375q0.7499981 0.4375 1.6406231 0.4375q0.9375 0 1.671875 -0.421875q0.734375 -0.4375 1.15625 -1.234375q0.421875 -0.8125 0.421875 -1.890625zm7.0343933 4.515625q-1.234375 0 -2.21875 -0.546875q-0.984375 -0.546875 -1.5625 -1.5625q-0.5625 -1.03125 -0.5625 -2.390625q0 -1.359375 0.578125 -2.375q0.578125 -1.015625 1.5625 -1.5625q1.0 -0.546875 2.234375 -0.546875q1.234375 0 2.234375 0.546875q1.0 0.546875 1.5625 1.5625q0.5625 1.015625 0.5625 2.375q0 1.34375 -0.578125 2.375q-0.5625 1.03125 -1.578125 1.578125q-1.0 0.546875 -2.234375 0.546875zm0 -0.96875q0.859375 0 1.59375 -0.390625q0.734375 -0.390625 1.1875 -1.1875q0.46875 -0.796875 0.46875 -1.953125q0 -1.140625 -0.453125 -1.9375q-0.453125 -0.796875 -1.1875 -1.1875q-0.734375 -0.390625 -1.59375 -0.390625q-0.875 0 -1.609375 0.390625q-0.734375 0.390625 -1.171875 1.1875q-0.4375 0.796875 -0.4375 1.9375q0 1.15625 0.4375 1.953125q0.4375 0.796875 1.15625 1.1875q0.734375 0.390625 1.609375 0.390625zm7.5688934 -6.34375q0.359375 -0.8125 1.109375 -1.25q0.765625 -0.453125 1.875 -0.453125l0 1.15625l-0.296875 0q-1.21875 0 -1.953125 0.65625q-0.734375 0.65625 -0.734375 2.203125l0 4.875l-1.125 0l0 -8.734375l1.125 0l0 1.546875zm6.1201324 -0.609375l0 5.421875q0 0.8125 0.296875 1.125q0.3125 0.296875 1.078125 0.296875l1.03125 0l0 0.953125l-1.203125 0q-1.1875 0 -1.765625 -0.546875q-0.578125 -0.5625 -0.578125 -1.828125l0 -5.421875l-1.203125 0l0 -0.9375l1.203125 0l0 -2.1875l1.140625 0l0 2.1875l2.40625 0l0 0.9375l-2.40625 0z" fill-rule="nonzero"/><path fill="#000000" fill-opacity="0.0" d="m0 81.2874l110.99213 0l0 27.370079l-110.99213 0z" fill-rule="evenodd"/><path fill="#000000" d="m7.765625 96.357445q0 -1.359375 0.546875 -2.375q0.546875 -1.015625 1.5 -1.5625q0.96875 -0.546875 2.203125 -0.546875q1.609375 0 2.65625 0.796875q1.046875 0.796875 1.359375 2.171875l-1.203125 0q-0.234375 -0.9375 -0.984375 -1.46875q-0.734375 -0.546875 -1.828125 -0.546875q-0.890625 0 -1.59375 0.40625q-0.703125 0.390625 -1.109375 1.1875q-0.40625 0.796875 -0.40625 1.9375q0 1.15625 0.40625 1.96875q0.40625 0.796875 1.109375 1.203125q0.703125 0.390625 1.59375 0.390625q1.09375 0 1.828125 -0.53125q0.75 -0.546875 0.984375 -1.5l1.203125 0q-0.3125 1.34375 -1.375 2.15625q-1.046875 0.8125 -2.640625 0.8125q-1.234375 0 -2.203125 -0.546875q-0.953125 -0.546875 -1.5 -1.5625q-0.546875 -1.03125 -0.546875 -2.390625zm9.808014 -0.015625q0 -1.34375 0.53125 -2.359375q0.546875 -1.015625 1.5 -1.5625q0.953125 -0.546875 2.140625 -0.546875q1.25 0 2.15625 0.578125q0.90625 0.5625 1.3125 1.46875l0 -1.921875l1.109375 0l0 8.734375l-1.109375 0l0 -1.9375q-0.421875 0.890625 -1.328125 1.484375q-0.90625 0.578125 -2.15625 0.578125q-1.171875 0 -2.125 -0.546875q-0.953125 -0.5625 -1.5 -1.59375q-0.53125 -1.03125 -0.53125 -2.375zm7.640625 0.015625q0 -1.046875 -0.4375 -1.84375q-0.4375 -0.8125 -1.1875 -1.234375q-0.734375 -0.4375 -1.625 -0.4375q-0.9375 0 -1.671875 0.421875q-0.734375 0.40625 -1.15625 1.203125q-0.421875 0.796875 -0.421875 1.875q0 1.078125 0.421875 1.890625q0.421875 0.796875 1.15625 1.234375q0.734375 0.421875 1.671875 0.421875q0.890625 0 1.625 -0.4375q0.75 -0.4375 1.1875 -1.234375q0.4375 -0.796875 0.4375 -1.859375zm4.8000183 -7.46875l0 11.84375l-1.125 0l0 -11.84375l1.125 0zm3.6640015 0l0 11.84375l-1.125 0l0 -11.84375l1.125 0z" fill-rule="nonzero"/><path fill="#000000" fill-opacity="0.0" d="m129.0971 94.85171l110.99213 0l0 27.370079l-110.99213 0z" fill-rule="evenodd"/><path fill="#000000" d="m136.48773 113.202995l2.9375 -7.640625l1.1875 0l-3.5 8.734375l-1.265625 0l-3.515625 -8.734375l1.203125 0l2.953125 7.640625zm5.127014 -3.296875q0 -1.34375 0.53125 -2.359375q0.546875 -1.015625 1.5 -1.5625q0.953125 -0.546875 2.140625 -0.546875q1.25 0 2.15625 0.578125q0.90625 0.5625 1.3125 1.46875l0 -1.921875l1.109375 0l0 8.734375l-1.109375 0l0 -1.9375q-0.421875 0.890625 -1.328125 1.484375q-0.90625 0.578125 -2.15625 0.578125q-1.171875 0 -2.125 -0.546875q-0.953125 -0.5625 -1.5 -1.59375q-0.53125 -1.03125 -0.53125 -2.375zm7.640625 0.015625q0 -1.046875 -0.4375 -1.84375q-0.4375 -0.8125 -1.1875 -1.234375q-0.734375 -0.4375 -1.625 -0.4375q-0.9375 0 -1.671875 0.421875q-0.734375 0.40625 -1.15625 1.203125q-0.421875 0.796875 -0.421875 1.875q0 1.078125 0.421875 1.890625q0.421875 0.796875 1.15625 1.234375q0.734375 0.421875 1.671875 0.421875q0.890625 0 1.625 -0.4375q0.75 -0.4375 1.1875 -1.234375q0.4375 -0.796875 0.4375 -1.859375zm4.8000183 -7.46875l0 11.84375l-1.125 0l0 -11.84375l1.125 0zm3.1015015 1.453125q-0.34375 0 -0.578125 -0.234375q-0.234375 -0.234375 -0.234375 -0.59375q0 -0.34375 0.234375 -0.578125q0.234375 -0.234375 0.578125 -0.234375q0.328125 0 0.5625 0.234375q0.25 0.234375 0.25 0.578125q0 0.359375 -0.25 0.59375q-0.234375 0.234375 -0.5625 0.234375zm0.5625 1.65625l0 8.734375l-1.125 0l0 -8.734375l1.125 0zm2.0233765 4.34375q0 -1.34375 0.546875 -2.359375q0.546875 -1.015625 1.5 -1.5625q0.953125 -0.546875 2.140625 -0.546875q1.15625 0 2.078125 0.5625q0.9375 0.546875 1.375 1.453125l0 -5.0l1.109375 0l0 11.84375l-1.109375 0l0 -1.953125q-0.40625 0.90625 -1.328125 1.5q-0.90625 0.578125 -2.140625 0.578125q-1.1875 0 -2.140625 -0.546875q-0.953125 -0.5625 -1.5 -1.59375q-0.53125 -1.03125 -0.53125 -2.375zm7.640625 0.015625q0 -1.046875 -0.4375 -1.84375q-0.4375 -0.8125 -1.1875 -1.234375q-0.734375 -0.4375 -1.625 -0.4375q-0.9375 0 -1.671875 0.421875q-0.734375 0.40625 -1.15625 1.203125q-0.421875 0.796875 -0.421875 1.875q0 1.078125 0.421875 1.890625q0.421875 0.796875 1.15625 1.234375q0.734375 0.421875 1.671875 0.421875q0.890625 0 1.625 -0.4375q0.75 -0.4375 1.1875 -1.234375q0.4375 -0.796875 0.4375 -1.859375zm3.1593933 -0.015625q0 -1.34375 0.53125 -2.359375q0.546875 -1.015625 1.5 -1.5625q0.953125 -0.546875 2.140625 -0.546875q1.25 0 2.15625 0.578125q0.90625 0.5625 1.3125 1.46875l0 -1.921875l1.109375 0l0 8.734375l-1.109375 0l0 -1.9375q-0.421875 0.890625 -1.328125 1.484375q-0.90625 0.578125 -2.15625 0.578125q-1.171875 0 -2.125 -0.546875q-0.953125 -0.5625 -1.5 -1.59375q-0.53125 -1.03125 -0.53125 -2.375zm7.640625 0.015625q0 -1.046875 -0.4375 -1.84375q-0.4375 -0.8125 -1.1875 -1.234375q-0.734375 -0.4375 -1.625 -0.4375q-0.9375 0 -1.671875 0.421875q-0.734375 0.40625 -1.15625 1.203125q-0.421875 0.796875 -0.421875 1.875q0 1.078125 0.421875 1.890625q0.421875 0.796875 1.15625 1.234375q0.734375 0.421875 1.671875 0.421875q0.890625 0 1.625 -0.4375q0.75 -0.4375 1.1875 -1.234375q0.4375 -0.796875 0.4375 -1.859375zm5.1281433 -3.421875l0 5.421875q0 0.8125 0.296875 1.125q0.3125 0.296875 1.078125 0.296875l1.03125 0l0 0.953125l-1.203125 0q-1.1875 0 -1.765625 -0.546875q-0.578125 -0.5625 -0.578125 -1.828125l0 -5.421875l-1.203125 0l0 -0.9375l1.203125 0l0 -2.1875l1.140625 0l0 2.1875l2.40625 0l0 0.9375l-2.40625 0zm12.149139 2.984375q0 0.578125 -0.03125 0.875l-7.25 0q0.046875 1.0 0.46875 1.703125q0.4375 0.703125 1.140625 1.0625q0.703125 0.359375 1.546875 0.359375q1.078125 0 1.8125 -0.53125q0.75 -0.53125 1.0 -1.421875l1.1875 0q-0.328125 1.28125 -1.375 2.09375q-1.046875 0.796875 -2.625 0.796875q-1.234375 0 -2.21875 -0.546875q-0.96875 -0.546875 -1.53125 -1.5625q-0.546875 -1.03125 -0.546875 -2.390625q0 -1.359375 0.546875 -2.375q0.546875 -1.03125 1.515625 -1.5625q0.984375 -0.546875 2.234375 -0.546875q1.234375 0 2.171875 0.546875q0.9375 0.53125 1.4375 1.453125q0.515625 0.921875 0.515625 2.046875zm-1.140625 -0.03125q0.015625 -0.984375 -0.390625 -1.671875q-0.40625 -0.6875 -1.109375 -1.03125q-0.703125 -0.359375 -1.53125 -0.359375q-1.25 0 -2.140625 0.8125q-0.875 0.796875 -0.96875 2.25l6.140625 0z" fill-rule="nonzero"/><path fill="#000000" fill-opacity="0.0" d="m183.6798 132.63124l62.015747 0l0 27.370071l-62.015747 0z" fill-rule="evenodd"/><path fill="#000000" d="m193.08604 144.88878q0.359375 -0.8125 1.109375 -1.25q0.765625 -0.453125 1.875 -0.453125l0 1.15625l-0.296875 0q-1.21875 0 -1.953125 0.65625q-0.734375 0.65625 -0.734375 2.203125l0 4.875l-1.125 0l0 -8.734375l1.125 0l0 1.546875zm12.229507 -1.546875l0 8.734375l-1.109375 0l0 -1.53125q-0.390625 0.8125 -1.1875 1.25q-0.796875 0.421875 -1.796875 0.421875q-1.5625 0 -2.5625 -0.96875q-0.984375 -0.96875 -0.984375 -2.796875l0 -5.109375l1.09375 0l0 4.96875q0 1.421875 0.71875 2.1875q0.71875 0.75 1.9375 0.75q1.265625 0 2.015625 -0.796875q0.765625 -0.8125 0.765625 -2.359375l0 -4.75l1.109375 0zm6.6592712 -0.15625q1.5625 0 2.546875 0.96875q1.0 0.96875 1.0 2.796875l0 5.125l-1.09375 0l0 -4.984375q0 -1.4375 -0.71875 -2.1875q-0.703125 -0.75 -1.9375 -0.75q-1.265625 0 -2.015625 0.8125q-0.75 0.796875 -0.75 2.34375l0 4.765625l-1.125 0l0 -8.734375l1.125 0l0 1.484375q0.40625 -0.796875 1.1875 -1.21875q0.796875 -0.421875 1.78125 -0.421875z" fill-rule="nonzero"/></g></svg>